<svg xmlns="http://www.w3.org/2000/svg" viewBox="0 0 117.51 185.41"><defs><style>.cls-1{fill:#2696a1;}.cls-2{fill:#043c3f;}.cls-3{fill:#ffb03b;}.cls-4{fill:#00596f;}</style></defs><title>Asset 5</title><g id="Layer_2" data-name="Layer 2"><g id="Titles"><path class="cls-1" d="M40,102.52Q23.66,118.93,7.28,135.3l-4.09,4.09a1.1,1.1,0,0,1-.18.16c-.22.18-.41.33-.45.52a2.62,2.62,0,0,0,.1,1.53,1.61,1.61,0,0,0,.75.6,3.92,3.92,0,0,1,.47.24c2.43,1.56,5.18,1.73,8,1.78q3.3,0,6.59,0c2.72,0,5.44,0,8.16,0,.49,0,.75.06.9.22s.22.43.21.92c0,5,0,9.93,0,14.54a8.17,8.17,0,0,0,2.28,5.6A7.65,7.65,0,0,0,36,167.95h8.33q3.56,0,7.13,0c1.27,0,1.87.23,1.87,1.58a1.44,1.44,0,0,0,1.45,1.63,2.42,2.42,0,0,0,.37,0,9.07,9.07,0,0,1,1.42-.09c.51,0,1,0,1.53,0l.4,0h.23a1,1,0,0,0,.74-.22,1.24,1.24,0,0,0,.24-.91c-.06-6.27,0-12.62,0-18.56,0-.66-.06-1.1-.84-1.1h-.18c-.61,0-1.22.06-1.83.06s-1.46,0-2.19,0-.86.23-1,.91c-.27,2-.55,2.23-2.5,2.23h-7.6a1.43,1.43,0,0,1-1.08-.31,1.37,1.37,0,0,1-.28-1.05c0-1.26,0-2.53,0-3.79v-.67c0-.45,0-.89,0-1.34,0-2.08,0-2.08,2.19-2.08H69.87q9.29,0,18.59,0H89c1.2,0,2.4,0,3.6,0h1.21c1.14,0,2.22,0,3.31,0a50.75,50.75,0,0,0,7.48-.47,14.61,14.61,0,0,0,5.3-1.88c3.39-2,3.54-2.18,5.5-5.48a13.9,13.9,0,0,0,2-6.58,1.31,1.31,0,0,0-1.06-1.47l-5.59-2.06-6.24-2.3c-6.38-2.4-12.11-4.45-17.52-6.27-2.21-.75-4.4-1.55-6.59-2.35l-.36-.13-.21-.08c-2.89-1-5.87-2.12-8.87-3.06-3.77-1.19-7.5-2.64-11.11-4l-.16-.06-.15-.06c-1.93-.76-3.87-1.51-5.82-2.23l-4.09-1.48-.77-.28-.76-.28c-1.85-.66-3.71-1.33-5.59-2a2.44,2.44,0,0,0-.66-.11,2.62,2.62,0,0,0-1.84.93"/><path class="cls-2" d="M18.89,64.14C15.49,67.69,10.4,73,5.44,78c-.4.41-.55.69-.5.93s.45.42.93.59l2.71,1,.39.14,2.55.91,3.33,1.16.52.18.52.18c1.74.6,3.48,1.21,5.2,1.85,2.13.79,4.25,1.61,6.37,2.43l.4.15c2.71,1,5.35,2.06,7.92,3,2.77,1,5.57,2,8.27,2.91l.48.16.34.11.15,0,1.1.38.4.14.48.16,5,1.74c2.37.84,4.73,1.72,7.09,2.6l.24.09c4,1.5,8.1,3,12.14,4.3,2.81.91,5.56,2,8.61,3.13l.28.1c1.56.61,3.12,1.21,4.69,1.78q4,1.49,8.09,2.94l.73.26,7.32,2.65c1.11.41,2.22.79,3.33,1.17l.44.15.16.05c2.56.88,5.09,1.75,7.52,2.84a11.34,11.34,0,0,0,2.72.72l.24,0,.94.17a1,1,0,0,0,.81-.28c.46-.64-.19-3.51-.94-4.14l-1.86-1.55-.65-.55-3-2.49-1-.89-.37-.32c-.62-.56-1.25-1.1-1.89-1.63-1.17-1-2.33-1.89-3.51-2.83l-.18-.15-.52-.42-.5-.4c-1.57-1.26-3.12-2.52-4.67-3.81-2.39-2-4.75-4-7.11-6L90.39,93l-.7-.61-3.31-2.83-3.66-3.12-5.43-4.63-3.59-3q-2.45-2-4.87-4.11Q64.42,71,60,67.17l-.94-.81a2.14,2.14,0,0,0-1.29-.63c-.47,0-.9.3-1.41,1q-2.14,2.92-4.3,5.8l-.69.93-1,1.33-3.68,5c-.68.93-1.35,1.87-2,2.83l-.37.52c-.74,1-1.43,2-2.15,3l-.17.21-.71.86c-.45.56-.86,1.06-1.3,1.54s-.67.72-.87.72-.4-.23-.76-.73c-.85-1.2-1.69-2.41-2.52-3.63l-.17-.24-.35-.5c-.67-1-1.35-2-2-2.92q-3.16-4.51-6.35-9L25.73,70.6l-.6-.83-.5-.7c-1.15-1.62-2.31-3.25-3.49-4.85A1.48,1.48,0,0,0,20,63.5a1.73,1.73,0,0,0-1.15.64"/><path class="cls-2" d="M0,88.33c0,.2,0,.4,0,.6v9q0,17.46,0,34.9a5.38,5.38,0,0,0,.35,1.83,11.22,11.22,0,0,0,1.18-1.22l.11-.12.11-.13.1-.12L2,133c.63-.72,1.19-1.36,1.77-2,1-1.07,2.07-2.11,3.13-3.15l1.39-1.38.88-.9.13-.13c.59-.61,1.19-1.21,1.81-1.78s1-.89,1.51-1.32l.12-.1c.69-.6,1.34-1.16,1.93-1.73s1-1.07,1.43-1.61l.12-.14c.53-.63,1-1.16,1.45-1.65,1.54-1.58,3.1-3.14,4.67-4.69l2-2,.86-.87.13-.13c.6-.61,1.21-1.22,1.84-1.8s1-.9,1.53-1.34l.12-.1c.67-.58,1.32-1.13,1.91-1.72s1.14-1.26,1.62-1.81l.21-.24c.38-.46.77-.91,1.17-1.35a9.81,9.81,0,0,1,.9-.85l.41-.36-.69-.47-1.1-.61a4.07,4.07,0,0,0-.57-.25l-2.51-.85-.73-.25c-1.47-.5-2.95-1-4.4-1.51-3.38-1.2-6.75-2.43-10.11-3.67l-.54-.2-.59-.22c-4-1.47-8.06-3-12.06-4.45a3,3,0,0,0-1-.27c-.47,0-.65.33-.73,1.29"/><path class="cls-3" d="M35.65.51a25.17,25.17,0,0,0-7.38,2.72A25.54,25.54,0,0,0,23,7.76l-.14.15a21.71,21.71,0,0,0-6.21,13.78,36.81,36.81,0,0,0,.83,10.84A76.15,76.15,0,0,0,22.62,47.4,133.11,133.11,0,0,0,29,59.52c2.67,4.53,5.78,8.93,8.53,12.81l1.94,2.75c.06.11.23.17.48.17a4,4,0,0,0,.41,0,15,15,0,0,0,2-2.34l.14-.18.79-1.07A134.09,134.09,0,0,0,54,55.18a91.61,91.61,0,0,0,7.3-16.66c1.25-4,2.54-8.09,2.45-12.45a4.24,4.24,0,0,1,.19-1.17A2.59,2.59,0,0,0,64,23.35a7,7,0,0,1-.27-1.83,11,11,0,0,0-.09-1.12,19.06,19.06,0,0,0-.82-3.49,24.77,24.77,0,0,0-8.3-12A25,25,0,0,0,41.06,0c-.4,0-.8,0-1.22,0a18.14,18.14,0,0,0-4.2.51m1.83,35.84a9.86,9.86,0,0,1-4.34-1.92,11.64,11.64,0,0,1-5.25-9.74,19.17,19.17,0,0,1,.72-5.24,8.78,8.78,0,0,1,2.3-3.6l.65-.72a9.05,9.05,0,0,1,5.56-3c.93-.14,1.89-.2,2.82-.25l.69,0,.83,0c4.74.64,8.08,2.89,9.93,6.68a11.22,11.22,0,0,1,1.13,7.48,13.45,13.45,0,0,1-3,6.57,11,11,0,0,1-6.62,3.82,17.89,17.89,0,0,1-3,.25,14.91,14.91,0,0,1-2.48-.19"/><path class="cls-4" d="M68.93,150.26h0a5.79,5.79,0,0,0-.64,0c-.21,0-.43,0-.63,0H65.42c-1.87,0-1.87,0-1.87,2v12.86c0,1.5,0,2.92,0,4.36a1.65,1.65,0,0,0,.35,1.2,1.4,1.4,0,0,0,1,.34h.52c.53,0,1.07,0,1.6,0a14.81,14.81,0,0,1,1.56.07H69a1.07,1.07,0,0,0,.78-.25A1.57,1.57,0,0,0,70,169.7c0-.86,0-1.29.19-1.51s.65-.23,1.62-.24h7.6c1.45,0,1.56.13,1.58,1.56,0,2.53,0,5.07,0,7.61,0,1.67,0,1.73-1.73,1.84-1.19.1-1.42.72-1.4,1.63V181a25.34,25.34,0,0,1,0,3.14,1.25,1.25,0,0,0,.21,1,1.43,1.43,0,0,0,1.06.29h0c3.82,0,7.6,0,11.39,0h7.22a1.19,1.19,0,0,0,.85-.46l0-1.6v-2.7c0-1.21,0-1.62-1-1.62h0l-.32,0h-.39c-1,0-1.16-.63-1.39-1.29a2.14,2.14,0,0,1-.08-1l0-.18v-.29q0-2.24,0-4.48v-.62c0-3.23,0-6.56.07-9.89.09-3.14-1.6-5-4.16-6.9a5.13,5.13,0,0,0-3.1-1H88.1c-1.7,0-3.39,0-5.09,0H71.32c-1,0-1.35-.31-1.37-1.14,0-.13,0-.28,0-.43,0-.58,0-1.23-.28-1.46a1.23,1.23,0,0,0-.73-.19h0"/></g></g></svg>