<svg xmlns="http://www.w3.org/2000/svg" viewBox="0 0 358.89 377.73"><defs><style>.cls-1{fill:#fff;}.cls-2{fill:#db5120;}.cls-3{fill:#fefefe;}.cls-4{fill:#ea9a00;}.cls-5{fill:#161616;}</style></defs><title>Asset 3</title><g id="Layer_2" data-name="Layer 2"><g id="Icons"><path class="cls-1" d="M121.18,298.54a3.9,3.9,0,0,0-1.67.89,21.2,21.2,0,0,0-2.24,2,11.61,11.61,0,0,0-2.68,3.59,2.6,2.6,0,0,0-.14,1.1,12,12,0,0,0,.18,1.51c.08.52.2,1,.31,1.55.27,1.3.6,2.58.9,3.87,1.32,5.55,2.5,11.14,4.13,16.61.11.38.23.75.35,1.12.27,1.86.55,3.72.81,5.58.38,2.75.73,5.52,1.3,8.24.29,1.37.64,2.72,1,4.07a27.37,27.37,0,0,0,1.3,3.71c.26.59.55,1.15.77,1.76.1.27.19.55.3.82a.78.78,0,0,0,.35.48c.34.2,1-.17,1.23-.29a15.41,15.41,0,0,0,3.41-2.77,50.86,50.86,0,0,0,4.47-5.41c.51-.68,1-1.38,1.47-2.08l.17-.15a19.43,19.43,0,0,0,2.58-2.81,29.38,29.38,0,0,0,1.92-3.09c.78-1.33,1.45-2.72,2.13-4.1l.16-.33c.41-.67.81-1.34,1.19-2,1.18-2.11,2.27-4.27,3.56-6.32.68-1,1.4-1.94,2.09-2.91.37-.52.74-1.06,1.07-1.61a3.44,3.44,0,0,0,.54-1.54,1.57,1.57,0,0,0-.59-1.26,11.44,11.44,0,0,0-1.62-1.2c-2.35-1.58-4.63-3.27-7-4.89s-4.51-3-6.61-4.74-4.19-3.66-6.5-5.21c-1.15-.77-2.32-1.49-3.51-2.18a16.35,16.35,0,0,0-3.59-1.74,5.56,5.56,0,0,0-.92-.17l-.64-.06h0M142,323.79l.08,0h0l-.08,0m1.8,5.11-.24.36h0l.24-.34m-5.07,2.8-.12.12h0l.12-.11m-8.49,10.81.06-.11-.06.11h0m1.48,4.38-.06-.16a21.42,21.42,0,0,0,1.66-1.71l-.05.27c0,.21,0,.32.15.34q-.69,1-1.39,2l-.3-.74m.85,1.94,0,0,0,0h0"/><path class="cls-1" d="M225.15,301.65a4.39,4.39,0,0,0-1,.39l-.65.32-.53.3c-1.48.85-2.9,1.83-4.31,2.8-2.2,1.52-4.36,3.09-6.56,4.61-.74.47-1.48.92-2.23,1.37a20.65,20.65,0,0,1-2,1c-1.13.44-2.26.87-3.42,1.25s-2.38.73-3.54,1.17c-.53.2-1.05.44-1.58.66a12.35,12.35,0,0,1-1.88.53c-.58.13-1.16.24-1.75.36-.35.07-.69.13-1,.22a5.28,5.28,0,0,0-1.57.77.89.89,0,0,0-.56.23,10.7,10.7,0,0,0-2.38,1.94,15.75,15.75,0,0,0-1.48,1.69l-.46.7a.86.86,0,0,0-.2.83l.09.14a1,1,0,0,0,0,.3,1,1,0,0,0,.25.16c.74,1.17,1.5,2.33,2.34,3.44s1.77,2.25,2.74,3.31,1.92,2,2.89,3.06c.48.5.94,1,1.38,1.57s.9,1.07,1.29,1.65a31.76,31.76,0,0,1,2.19,3.69c.62,1.22,1.22,2.45,1.87,3.65a37.66,37.66,0,0,0,2.13,3.55,34.76,34.76,0,0,0,2.56,3.19,29.3,29.3,0,0,1,2.48,3,1.81,1.81,0,0,0,.3.35l.12,0a1,1,0,0,0,.95-.23,16.22,16.22,0,0,0,1.82-1.34,17.5,17.5,0,0,0,2.67-2.84,3.9,3.9,0,0,0,.92-2c0-.22,0-.44,0-.66,0-.65,0-1.3-.06-2a29.34,29.34,0,0,1,.08-4,30.21,30.21,0,0,1,.75-4.19c.67-2.65,1.92-5.09,2.78-7.67s1.41-5.35,2.14-8,1.71-5.32,2.19-8.08a37.11,37.11,0,0,0,.45-4.21c.07-1.26,0-2.52,0-3.78a10.4,10.4,0,0,1,.2-2c.05-.23.11-.45.17-.68a1.17,1.17,0,0,0,0-.51.65.65,0,0,0-.38-.1l-.27,0m-5.73,6.3h0m.12.09v0m-23.79,13h0l0,0,0,0M211.9,342.2l0,.12h0l0-.12"/><path class="cls-2" d="M117,92.88A11.51,11.51,0,0,0,114.49,95a13.68,13.68,0,0,0-1.82,2.11l-.05.05,0,0-.67.82a4.19,4.19,0,0,0-.71,1.24l-.15,1.38,0,.31a5.31,5.31,0,0,0-.31.84l-.1.36,0,.14-.06.23c-.1.38-.2.76-.3,1.14l-.13.51c-.18.67-.35,1.34-.52,2l-.3,1.17c-.5,1.93-1.08,4-1.85,6.49-.65,2.1-1.3,4.31-1.82,6.09l-.25.84-.3,1c-.52,1.76-1,3.58-1.64,5.35-.51,1.53-1,3-1.56,4.51l0,0,0,.12,0,.13c-.39,1.1-.79,2.24-1.17,3.36l-.42,1.24,0,0,0,.09c-.66,1.94-1.34,4-2.09,5.89l0,0-.11.23-.07.15v0a3.4,3.4,0,0,0-.37.89.42.42,0,0,0,0,.35.25.25,0,0,0,.2.08l.18,0,.25-.11.36-.16a11.75,11.75,0,0,0,1.77-1.32l.31-.28c-.64,1.26-1.2,2.27-1.76,3.19-.48.7-.93,1.33-1.38,1.92l-.94,1.05L96,149l-.83.71-1,.74a39.93,39.93,0,0,1-4.86,2.71,23.26,23.26,0,0,1-2.92,1,22,22,0,0,1-3.11.49l-.16,0a27.07,27.07,0,0,0-2.82.39c-.47.1-1,.24-1.32.33-.56.15-1.19.32-1.8.42a16.54,16.54,0,0,1-2.83.2H72.45a20.41,20.41,0,0,0-2.07.09,5.59,5.59,0,0,0-1.73.57l-.07,0a5.12,5.12,0,0,0-.88.55l-.35.25a18.21,18.21,0,0,0-2.16,1.88c-.52.52-.91.93-1.3,1.4l-.19.24a11.19,11.19,0,0,0-1.27,1.75,8,8,0,0,0-.52,1.2,4.46,4.46,0,0,0-.18,1.13v.09a12.79,12.79,0,0,0,.16,2.55l0,.36c.07.55.18,1.11.28,1.6v.07a26.63,26.63,0,0,0,.89,3.11c.33,1,.66,2,.93,2.88l0,.14q.26.84.54,1.67l0,.1v0c.49,1.5,1,3,1.41,4.61l.22.83c0,.26.06.49.09.72V184l0,.28a23.35,23.35,0,0,0,.66,3c.26,1,.59,2,1.06,3.33s1,2.57,1.44,3.63l.14.47A53,53,0,0,0,71.94,201a11.21,11.21,0,0,0,1.59,2.66c.36.44.73.83,1.05,1.15l.21.22A3.25,3.25,0,0,0,76,206a.84.84,0,0,0,.28,0,1.51,1.51,0,0,0,.67-.2,23.5,23.5,0,0,0,4.76,1.85A7.87,7.87,0,0,1,85,209.38a7.69,7.69,0,0,1,1.73,3.28c.26.86.48,1.74.69,2.59l.16.66c.24,1,.52,2.09.73,3.25.27,1.43.47,2.88.66,4.29.11.85.23,1.68.35,2.5a42.9,42.9,0,0,0,1.33,5.42l.24.82c.59,2,1.22,4.09,1.83,6.07L93,239q.48,1.57,1,3.13c.36,1.13.83,2.24,1.28,3.31v0c.46,1.08.95,2.15,1.42,3.19l.05.12c.38.84.81,1.79,1.22,2.73.84,1.94,1.53,4,2.21,5.9l.12.34a45.82,45.82,0,0,0,2.45,6,22.62,22.62,0,0,0,1.69,2.9c.74,1,1.55,2,2.25,2.86.84,1,1.74,2,2.61,2.92l0,0c.59.64,1.26,1.36,1.88,2.06a43.61,43.61,0,0,1,3.3,4.49l0,0,.11.17.06.09.38.56c1.41,2.09,2.64,3.77,3.86,5.31,1.43,1.79,2.79,3.64,3.93,5.21,1.44,2,2.73,3.69,3.94,5.23.66.84,1.38,1.74,2.16,2.62a21.57,21.57,0,0,0,2.38,2.23,18.21,18.21,0,0,0,6.17,3l.8.27a17.74,17.74,0,0,0,2.2.66,2.79,2.79,0,0,0-.35,1,1.25,1.25,0,0,0,.38,1,4.25,4.25,0,0,0,1.61.93,10.1,10.1,0,0,0,1.06.33l.17,0c.47.13,1,.25,1.41.36l.07,0,.25.06.83.2c1.79.42,3.63.86,5.41,1.35a31.53,31.53,0,0,0,3.13.75c1.15.19,2.3.34,3.44.42s2.11.13,3.05.16c.42,0,.86,0,1.3.07s1.11.08,1.67.08h0c.49,0,1,0,1.52-.07a.59.59,0,0,0,.19.29,1.67,1.67,0,0,0,.51.23l.19.06a5,5,0,0,0,.75.21l.2,0a14.62,14.62,0,0,0,2.06.28h.12c.58,0,1.17.06,1.74.07h1a20.74,20.74,0,0,0,3-.23,29.83,29.83,0,0,0,3.26-.68,28.14,28.14,0,0,0,3.23-1.08l.23-.09.22-.09.23,0,.24,0a20.87,20.87,0,0,0,2.14.13l.66,0A6.65,6.65,0,0,0,187,310a12.55,12.55,0,0,0,2.19-.42l.7-.19a28.45,28.45,0,0,0,3.11-1c1.51-.6,2.93-1.3,4.3-2,.69-.34,1.4-.67,2-1l.07,0,1.46-.68a39.36,39.36,0,0,0,3.53-1.91,40.77,40.77,0,0,0,5.11-3.62,53.73,53.73,0,0,0,5-5c.56-.62,1.11-1.29,1.59-1.88l.86-1c1.17-1.12,2.35-2.32,3.6-3.67a36.94,36.94,0,0,0,2.79-3.49c.73-1,1.4-1.94,2.06-2.88,1.57-2.22,3-4.42,4.28-6.27l1-1.5,0,0c1-1.54,2.12-3.13,3.11-4.76.51-.84,1-1.78,1.68-3,.52-1,1-2,1.33-2.9l.22-.52a25.93,25.93,0,0,0,.91-2.7l.06-.21.15-.49c.23-.75.44-1.48.64-2.23l.29-1c.64-2.23,1.21-4.3,1.76-6.33s1.22-4.17,1.95-6.25c.43-1.23.93-2.5,1.32-3.53.3-.78.65-1.68,1-2.57.86-2.34,1.59-4.44,2.22-6.43l.53-1.66c.47-1.5,1.06-3.36,1.65-5.09.35-1,.76-2.07,1.26-3.26.31-.67.63-1.34.94-2,.52-1.09,1-2.16,1.49-3.23a50,50,0,0,0,1.92-5.42l.56-1.8,0-.06c.67-2.17,1.36-4.42,2.15-6.6l.21.56,0,.13-.19.24,0,0-.49.74a1,1,0,0,0-.23.9,3.28,3.28,0,0,0,.5,1.34c.21.37.42.74.65,1.11a5.18,5.18,0,0,0,.32,1.2,2.45,2.45,0,0,0,.31.53,1.18,1.18,0,0,0,.81.4l.14,0h0a2.8,2.8,0,0,0,1.59.49,2.68,2.68,0,0,0,.87-.14,8.35,8.35,0,0,0,2.2-1.27,21.86,21.86,0,0,0,2.66-2.36,23.68,23.68,0,0,0,2.81-3.44l.15-.22.26-.39c.61-.91,1.25-1.85,1.79-2.82s1-1.94,1.61-3.16c1-2.1,2-4.37,2.82-6.69a36.39,36.39,0,0,0,1.44-6.36c.16-1,.29-2,.42-3.33,0-.46.07-.95.09-1.53a9.44,9.44,0,0,0-.37-2.53c-.64-2.61-1.24-4.69-1.9-6.55a31.88,31.88,0,0,0-1.35-3.29,12.35,12.35,0,0,0-1.81-2.63,11.34,11.34,0,0,0-2.43-2c-.27-.18-.55-.34-.8-.49l-.45-.26a7.42,7.42,0,0,1-2-2.06,13.55,13.55,0,0,1-1.4-2.28c-.26-.58-.5-1.1-.7-1.66-.4-1.09-.78-2.17-1.14-3.18-.7-2-1.32-4-2-6.15a57.56,57.56,0,0,1-1.64-6.41c-.14-.73-.24-1.48-.33-2.14,0-.31-.08-.61-.12-.91a6.83,6.83,0,0,0-.65-2.14,3.3,3.3,0,0,0-2.08-1.47,15.73,15.73,0,0,0-2.28-.51l-.56-.1a8,8,0,0,1-2.86-1.12,17.8,17.8,0,0,1-1.81-1.37l0,0-.63-.51c-1.57-1.24-3.65-1.87-6.56-2-.91,0-1.68-.05-2.42-.05s-1.42,0-2.06.07l-1.71.13-.46,0-2.3.17c-1.8.13-3.9.27-6,.27-1.09,0-2.08,0-3-.11a31.15,31.15,0,0,1-6.16-1.42,20.09,20.09,0,0,1-3.13-1.36,11.4,11.4,0,0,1-2.36-1.77A13.77,13.77,0,0,1,211,119c-.3-.48-.58-1-.79-1.36l-.11-.19a6.33,6.33,0,0,0-1.19-1.71,2.66,2.66,0,0,0-1.37-.47h-.05a9.45,9.45,0,0,0-1.37-.09h0c-.53,0-1,0-1.52.07h0l-1,.08-.21,0-1.89.15c-1.71.12-3.09.18-4.36.18-1,0-2,0-2.85-.11-1.42-.18-2.86-.44-4.25-.69h-.08l-2.12-.38c-1.8-.3-3.65-.64-5.27-.94l-.18,0-1.39-.26c-2.11-.38-4.14-.78-6.55-1.27s-4.61-.85-7.19-1.24c-1.45-.21-2.94-.36-4.37-.5h-.06l-1.27-.13-.29,0c-1-.15-2-.31-3-.54s-2.15-.5-3.27-.86l-1.22-.38h0c-1.79-.56-3.64-1.14-5.43-1.75a36,36,0,0,1-4.13-1.82c-.67-.33-1.28-.63-1.88-.91-1.22-.56-2.53-1.12-3.58-1.57l-.26-.11-2.38-1c-1.6-.71-3-1.35-4.54-1.88l-.08,0c-1.46-.52-3-1-4.41-1.7s-2.8-1.34-4-2l-.44-.22-.35-.17-.06,0c-.54-.27-1.08-.55-1.6-.83l-1.07-.58a4.49,4.49,0,0,1-.86-.6l-.1-.1a.92.92,0,0,0-.45-.3,1.07,1.07,0,0,0-.26,0,1,1,0,0,0-.64.26"/><path class="cls-2" d="M102.91,137.72c-.4.25-.74.49-.7.47a20.9,20.9,0,0,0-4.34,4.25,12.07,12.07,0,0,0-1.23,2c-.29.55-.53,1.13-.79,1.7l-.23.5-.22.31-1,1.4-.83,1.18c-.63.83-1.26,1.66-1.84,2.53a4.92,4.92,0,0,0-.83,1.46q-.12.53.4.4a4.94,4.94,0,0,0,1.45-.82l-.26.66q-.14.58.44.44a5.4,5.4,0,0,0,1.6-.91,20.74,20.74,0,0,0,2.2-1.93q.61-.6,1.16-1.24a9.34,9.34,0,0,0,2.14-1.51,23,23,0,0,0,3-3.25c.51-.66.94-1.37,1.39-2.07l1.4-2.2a1,1,0,0,0,.23-1l-.36,0a4.76,4.76,0,0,0-1.42.81q-.48.37-.94.76l.14-.51.33-1.17L104,139l.14-.5a2.33,2.33,0,0,0,0-1.19c0-.07-.08-.1-.16-.1a2.85,2.85,0,0,0-1.06.47m.13,6.43h0"/><path class="cls-2" d="M70.95,157.63c-.2,0-.38.1-.57.12l-.17-.06c-.38-.16-.89.14-1.18.3a13.32,13.32,0,0,0-3,2.42,15.9,15.9,0,0,0-1.93,2.22,7.15,7.15,0,0,0-.92,1.68,4,4,0,0,0-.14.56,11.9,11.9,0,0,0-.17,1.6c0,.74-.08,1.49-.08,2.23,0,1.5,0,3,.1,4.49.1,2.84.3,5.68.44,8.53.1,2.1.25,4.19.51,6.28,0,.27,0,.54.07.82a5.29,5.29,0,0,0,.16.79q.07.43.14.86a35.29,35.29,0,0,0,2.23,8.3,9.3,9.3,0,0,0,1.59,2.6,2.82,2.82,0,0,0,1.48.73,8.49,8.49,0,0,0,2.18.15,6.18,6.18,0,0,0,1.84-1,23.2,23.2,0,0,0,3.76-3.53A15,15,0,0,0,79,195.39l.35-.79q.16-.66-.51-.51h-.5a4.15,4.15,0,0,1-2.12-.89,6.25,6.25,0,0,1-.9-1.06,11.24,11.24,0,0,1-.7-1c-.34-.58-.68-1.17-1-1.78a33,33,0,0,1-1.57-4l0-.09c0-.18,0-.36,0-.53,0-.43-.09-.86-.14-1.29a4.27,4.27,0,0,0-.55-2h0c-.3-4.68-.33-9.39-.34-14.07,0-1.58.05-3.15.18-4.72.06-.73.13-1.46.22-2.18.06-.55.13-1.1.16-1.66a4,4,0,0,0-.05-.82c0-.22-.09-.32-.29-.32l-.2,0"/><path class="cls-3" d="M115.11,309l-.67.3a12.72,12.72,0,0,0-1.92,1.43,23.6,23.6,0,0,0-2.16,2.16l-.84,1a5.27,5.27,0,0,0-.89,1.56c-.27,1.58-.45,3.18-.67,4.76-.19,1.36-.39,2.73-.59,4.09-.44,3-.81,5.93-1.17,8.9s-.71,5.68-1.19,8.49c-.23,1.38-.48,2.75-.64,4.14s-.24,2.63-.28,3.94c0,1,0,2,0,3.08,0,.48,0,1-.07,1.43l-.06.86,0,.35c0,.06,0,.12,0,.17,0,.27-.06.49.17.64a1.37,1.37,0,0,0,1.33-.32,15.85,15.85,0,0,0,2.4-1.79,29.62,29.62,0,0,0,2.7-2.7l1-1.29a6.6,6.6,0,0,0,.77-1.17l.3-.68-.3.68a6.56,6.56,0,0,0,.34-.78l.14-.31a1.18,1.18,0,0,0,0-.28,4.35,4.35,0,0,0,0-.45l0-1c0-.66,0-1.32.06-2,0-1.3,0-2.6.08-3.9.09-2.58.38-5.14.62-7.71s.46-5.33.68-8q.08-.41.16-.82a5.21,5.21,0,0,0,.57-1.13c.13-1.18.13-2.4.17-3.58v-.22c0-.27,0-.53.06-.8l0-.55c.07-.52.13-1,.18-1.55l0-.35h0l-.14,0q0-1.53.08-3.05c0-.51,0-1,0-1.53s.08-1.07.12-1.61q.11-.46-.24-.46l-.19,0m-2.79,40c-.05.12-.06.15,0,0h0"/><path class="cls-3" d="M251.7,349a13.08,13.08,0,0,1-2.69.52c-.69.11-1.37.24-2,.37-1.44.26-2.89.48-4.34.68a75.65,75.65,0,0,0-8.59,1.86c-2.9.74-5.79,1.47-8.7,2.15s-6,1.21-9,1.77c-6,1.11-11.8,2.9-17.86,3.48-3.06.3-6.13.41-9.2.58s-6.16.64-9.23,1c-1.41.15-2.82.18-4.23.21q-2.36.05-4.72.07c-3,0-6-.16-8.94-.44-1.19-.11-2.37-.24-3.56-.37l.49.05q-4.5-.52-9-1.24c-1.65-.27-3.3-.5-5-.67-1.51-.15-3-.17-4.56-.22q-3.63-.12-7.25-.48-4.43-.52-8.84-1.2c-1.47-.23-2.94-.42-4.41-.67a15.83,15.83,0,0,1-4.2-1.38c-2.21-1-4.49-1.88-6.79-2.7a1.33,1.33,0,0,0-1.28.31l-1.07.71a26.37,26.37,0,0,0-4.86,4.86l-.71,1.07a1.32,1.32,0,0,0-.31,1.28,43.2,43.2,0,0,1,4.39,1.7c1.26.6,2.37,1.5,3.66,2a19.47,19.47,0,0,0,4.31,1c1.49.23,3,.44,4.45.69,3.12.51,6.29.87,9.45,1.15s6.12.31,9.19.48l.86.07c1.34.16,2.67.36,4,.57,1.54.25,3.09.45,4.64.67s3,.44,4.54.6,3.27.33,4.9.48a85.78,85.78,0,0,0,9,.38c3,0,6-.11,9-.42s6-.7,9.09-.85,6.24-.36,9.35-.67a70.69,70.69,0,0,0,8.83-1.61c2.92-.67,5.84-1.37,8.79-1.91s5.9-1,8.83-1.68,5.82-1.37,8.71-2.13a64.9,64.9,0,0,1,8.39-1.73c1.34-.17,2.67-.37,4-.62l2-.37,1.08-.17.6-.1a8,8,0,0,0,1.9-.7,16.3,16.3,0,0,0,2.45-1.83,30.27,30.27,0,0,0,2.75-2.75,16.3,16.3,0,0,0,1.83-2.45l.38-.86q.14-.58-.31-.58l-.24,0"/><path class="cls-3" d="M103.21,351.05a14.14,14.14,0,0,0-3.16,2.58,21,21,0,0,0-2,2.23l-.62.92a1.14,1.14,0,0,0-.27,1.1,22.72,22.72,0,0,0,7.44,7,50.72,50.72,0,0,0,4.62,2.35,26.24,26.24,0,0,0,4.38,1.48c1.64.39,3.28.76,4.95,1,1.86.27,3.72.48,5.6.67,3.32.34,6.65.57,10,.9l.56.06c1.55.18,3.11.35,4.65.62,1.75.31,3.48.69,5.22,1.07,3.28.72,6.61,1.16,9.93,1.62s6.92,1,10.4,1.31c1.67.14,3.35.23,5,.32s3.31.22,5,.31c3.48.2,7,.29,10.43.44,3.22.14,6.42.45,9.64.56s6.62.17,9.93.14,6.78-.21,10.16-.53,6.88-.79,10.32-1.16a26.93,26.93,0,0,0,4.62-.77c1.68-.49,3.31-1.09,4.95-1.72s3.05-1.19,4.57-1.81,3-1.17,4.5-1.81a44.59,44.59,0,0,0,5-2.48,33.13,33.13,0,0,0,10-8.62,12.31,12.31,0,0,0,1-1.55,1.41,1.41,0,0,0,.33-1.36l-.5-.05a6.7,6.7,0,0,0-2,1.14,25.79,25.79,0,0,0-2.5,2.17,39.24,39.24,0,0,1-3.77,2c-2.87,1.23-5.78,2.38-8.68,3.52-1.52.6-3,1.21-4.61,1.66a35,35,0,0,1-5.07,1A160.92,160.92,0,0,1,213,369.12c-3.28,0-6.56,0-9.85-.09s-6.76-.37-10.14-.55-6.65-.16-10-.35l-5.43-.34c-1.58-.1-3.16-.16-4.73-.3l-2-.17c-3.22-.36-6.43-.82-9.64-1.25-3.4-.46-6.77-1-10.13-1.7-1.55-.32-3.11-.62-4.67-.82-1.91-.24-3.81-.45-5.73-.62-3.36-.3-6.74-.43-10.1-.67-1-.07-2-.16-3-.24a51.66,51.66,0,0,1-9.71-2,44.44,44.44,0,0,1-4.78-1.88,27.87,27.87,0,0,1-4.32-2.5,17,17,0,0,1-2.38-2.14,20,20,0,0,1-2.18-2.76,1.21,1.21,0,0,0-.33,0,1.18,1.18,0,0,0-.78.31m148.47,12.63,0,.07,0-.07"/><path class="cls-3" d="M234.9,306.16l-.53.23a10,10,0,0,0-1.51,1.13,18.75,18.75,0,0,0-1.7,1.7l-.66.81a4.1,4.1,0,0,0-.7,1.23c-.12.91-.26,1.83-.33,2.75s-.12,2.14-.15,3.21q0,1.23,0,2.45,0,2.79,0,5.58c0,2.76.09,5.53.16,8.29q0,1,0,2,0,.62,0,1.25c0,.39,0,.78,0,1.16a3.33,3.33,0,0,0,.4,1.57.89.89,0,0,0,.86-.21l.52-.34q.07,1.61.15,3.21l.15,3.15c0,.59,0,1.18,0,1.77a28.07,28.07,0,0,0,.38,3.86,1,1,0,0,0,1-.23,11.44,11.44,0,0,0,1.72-1.28q.58-.51,1.13-1.07c0,2.25,0,4.49-.1,6.74,0,.3,0,.6-.05.89l0,.53a2.61,2.61,0,0,0,.1,1.32,1.14,1.14,0,0,0,1.1-.26l.92-.61a22.65,22.65,0,0,0,4.17-4.17l.61-.92a1.14,1.14,0,0,0,.26-1.1,1.67,1.67,0,0,1-.33-.9l-.15-.74c-.08-.42-.13-.84-.2-1.26-.12-.77-.18-1.55-.26-2.33l0,.34c-.24-2.63-.38-5.27-.51-7.91q-.22-4.52-.41-9c-.09-2.16-.17-4.32-.22-6.48q-.05-2.31-.11-4.62c-.05-2.25.1-4.51-.17-6.74a.92.92,0,0,0-.89.21,10.66,10.66,0,0,0-1.61,1.2q-.47.42-.92.86-.08-.11-.34-.05l-.56.25a10.71,10.71,0,0,0-1.43,1c0-.79,0-1.58.06-2.37,0-1,.09-2,.16-3s.23-1.84.35-2.76q.08-.36-.19-.36l-.15,0"/><path class="cls-3" d="M115.67,315.91l-.12,0a5.13,5.13,0,0,0-1.51.86,16.53,16.53,0,0,0-2.18,1.93,17,17,0,0,0-2.4,2.94,3.91,3.91,0,0,0-.54,1.63c-.11.95-.25,1.89-.32,2.84,0,.47-.07.94-.1,1.41-.09,1.48-.18,3-.26,4.44s-.16,3.16-.25,4.74c-.08,1.34-.19,2.68-.3,4-.07.28-.14.56-.19.85-.1.55-.15,1.11-.21,1.67s-.08.91-.12,1.37c-.08.9-.13,1.79-.19,2.69s-.07,1.63-.12,2.44c0,.48,0,1-.05,1.43s0,.82,0,1.23a7.52,7.52,0,0,0,.08,1c0,.28.06.52.3.7a1.08,1.08,0,0,0,.51,0l0,.09.19.49a4.09,4.09,0,0,0-1,2.08c0,1.55,1.5,2.67,2.61,3.49,1,.7,2,1.3,3,1.9,1.89,1.12,3.87,2.11,5.81,3.16a1.1,1.1,0,0,0,1.06-.26l.89-.59a20.14,20.14,0,0,0,2.15-1.89l.23-.23.86.28c.81.25,1.61.5,2.44.69a17.47,17.47,0,0,0,3,.43,13.46,13.46,0,0,0,3.06-.26,25.93,25.93,0,0,0,2.59-.59,10.23,10.23,0,0,0,2.9-1.23,18.82,18.82,0,0,0,2.28-1.77,3.77,3.77,0,0,0,.24.46,2.19,2.19,0,0,0,.69.77c.48.28,1.18-.15,1.55-.35.14-.07.29-.17.44-.27a2.54,2.54,0,0,0,.77.53,1.57,1.57,0,0,0,1.31-.12,1.42,1.42,0,0,0,.5.63,1.69,1.69,0,0,0,.66.12,2.83,2.83,0,0,0,.52,0,4.78,4.78,0,0,0,1.46-.54,22.37,22.37,0,0,0,.46,2.27c.21.81.45,2,1.53,2a3.25,3.25,0,0,0,1.5-.58,13.83,13.83,0,0,0,1.6-1.12,1.06,1.06,0,0,0,.68.41,2.52,2.52,0,0,0,.89.08,6.71,6.71,0,0,0,0,1.36,2,2,0,0,0,.63,1.15,1.09,1.09,0,0,0,1.05.07,7.59,7.59,0,0,0,2.07-1.22,25.21,25.21,0,0,0,5-5.1,18,18,0,0,0,1.86-3.38c.36-.81.64-1.66.91-2.5.11,1.21.19,2.42.19,3.63,0,.7,0,1.39,0,2.09s.14,1.45.23,2.18a1,1,0,0,0,1-.24,11.8,11.8,0,0,0,1.77-1.32,21.87,21.87,0,0,0,2-2,7.67,7.67,0,0,0,1.6-2.4c.5-1.45.92-2.91,1.4-4.37s1-2.85,1.45-4.28c.42-1.24.92-2.45,1.38-3.68.68-1.81,1.38-3.6,2.15-5.38l.28-.6.41,1.17c.15.45.29.9.41,1.36a14.19,14.19,0,0,0-.34,1.44,36.64,36.64,0,0,0-.51,7.52,75.44,75.44,0,0,0,.81,8.21c.17,1.24.45,2.45.64,3.68a2.87,2.87,0,0,0,.45,1.3c.18.25.48.24.76.27s.51,0,.76,0a5.08,5.08,0,0,0,1.51-.86,19.63,19.63,0,0,0,2.08-1.83l.54-.55a2.29,2.29,0,0,0,.3.44,3.54,3.54,0,0,0,.78.53,1.14,1.14,0,0,0,.36,0c.24.72.47,1.45.68,2.19a10.08,10.08,0,0,0,.71,2,9.66,9.66,0,0,0,1.17,1.53,1.11,1.11,0,0,0,.28,0c.08.22.16.44.23.66a11.62,11.62,0,0,0,.67,1.87c.37.7,1,.85,1.71,1.16a1.06,1.06,0,0,0,1-.25,12.28,12.28,0,0,0,1.86-1.38l0,0,0,.39a2.3,2.3,0,0,0,1.36.22c.23,0,.46-.08.69-.1.39,0,.77-.06,1.16-.08.82,0,1.63,0,2.46,0,1.41,0,2.83.16,4.23.29,2.82.27,5.64.47,8.47.56a1.27,1.27,0,0,0-.06.9c.39.09.77.2,1.17.26a11.29,11.29,0,0,0,1.46.1c.67,0,1.35,0,2-.06l2-.14c1.27-.09,2.53-.21,3.8-.34s2.35-.27,3.53-.4l1.44-.17.59,0a6.21,6.21,0,0,0,1.88-.21,6.05,6.05,0,0,0,1.8-1q.44-.32.86-.67a32.15,32.15,0,0,0,3.52-1.36c.63-.28,1.24-.59,1.85-.91a22.26,22.26,0,0,0,2.41-1.56,20.24,20.24,0,0,0,2.82-2.47,16.87,16.87,0,0,0,3-3.77,1.2,1.2,0,0,0,.28-1.14,1.18,1.18,0,0,0,0-.62,1.91,1.91,0,0,0-1.26.07l-.62.19-1.36.4c-.43.12-.86.22-1.29.32a14.1,14.1,0,0,1-1.62.3l.18-.29a1.19,1.19,0,0,0,.28-1.15c-.15-.27-.52-.23-.8-.2a4.78,4.78,0,0,0-1.25.33,8.84,8.84,0,0,0-.82.38,4.16,4.16,0,0,0,.12-.48,4.54,4.54,0,0,0-.07-1.46,8,8,0,0,0-1-2.58,13.9,13.9,0,0,0-.89-1.4q.34-.47.64-1a1.17,1.17,0,0,0,.27-1.13,2.68,2.68,0,0,0-.49-.06c-.24,0-.46.1-.7.12a5.08,5.08,0,0,1-.94,0l-.63-.12c-.3-.31-.61-.6-.93-.89a9.24,9.24,0,0,0-1.07-.83,7,7,0,0,0-1.26-.61,2,2,0,0,0-.64-.16q0-2.37-.05-4.73c-.08-2.1-.26-4.17-.46-6.26-.14-1.49-.23-3-.43-4.47l-.67-4.92c-.16-1.16-.38-2.32-.54-3.48,0-.53-.06-1.06-.14-1.58a1.86,1.86,0,0,0-.26-.68c-.11-.19-.41-.27-.6-.36a1,1,0,0,0-.92.22,11.14,11.14,0,0,0-1.67,1.24,20.69,20.69,0,0,0-1.88,1.88l-.73.9a4.57,4.57,0,0,0-.77,1.36c-.16,1-.35,2-.49,3s-.19,2.23-.23,3.35c0,1.28-.08,2.56-.1,3.84v.72c-.15.42-.28.85-.42,1.28q-.48.45-.92.92a15.89,15.89,0,0,0-1.91,2.22,9.36,9.36,0,0,0-.73,1.18c-.16.33-.3.67-.44,1-.33.84-.5,1.75-.75,2.62l-.57,2c-.39,1.36-.8,2.72-1.18,4.08-.9,3.2-1.8,6.39-2.74,9.57l-.11.37-1.62-.22c-1.12-.15-2.26-.23-3.39-.3-.54,0-1.08,0-1.62-.06h-.63c-.29,0-.59,0-.88,0l-.16-.08,0,0c.16-.29.33-.57.49-.85a18.55,18.55,0,0,0,.85-1.85,12.91,12.91,0,0,0,.87-3,15.05,15.05,0,0,0-.47-6.54,22.67,22.67,0,0,0-1-2.77c-.17-.41-.36-.81-.52-1.22a2.86,2.86,0,0,0-.72-1.11,2,2,0,0,0-.88-.51,1.59,1.59,0,0,0-.48,0q-.28-1.27-.58-2.53c-.23-1-.5-1.94-.76-2.9l-.33-1.28c-.16-.62-.32-1.23-.52-1.84a15.64,15.64,0,0,0-.74-1.65l-.41,0a5.47,5.47,0,0,0-1,.47l-.26-.73c-.22-.62-.46-1.24-.7-1.86-.11-.29-.22-.58-.33-.88s-.3-.84-.49-1.24a3.44,3.44,0,0,0-.94-1.08l-.37,0a5,5,0,0,0-1.48.85q-.45.33-.87.68c-.15-.21-.31-.41-.48-.61l-.42-.53-.35,0a4.77,4.77,0,0,0-1.42.81c-.76.6-1.56,1.1-2.29,1.75a22.74,22.74,0,0,0-2.77,2.84l-.14-.38c-.14-.37-.28-.73-.4-1.11a.88.88,0,0,0-.5-.66,2.08,2.08,0,0,0-1.18,0,7.42,7.42,0,0,0-2.21,1.2,18.47,18.47,0,0,0-2.53,2.23A24.9,24.9,0,0,0,177,337a24.49,24.49,0,0,0-1.8,2.93c-.46.84-.92,1.67-1.32,2.53-.49,1-.93,2.09-1.36,3.15l-.31.76q-.11-.69-.25-1.37c-.3-1.47-.56-3-.92-4.42l-.64-2.61a8.76,8.76,0,0,0-.51-1.89,1.87,1.87,0,0,0-2.05-1h0a6.61,6.61,0,0,0-.31-1.24c-.22-.56-.85-.64-1.37-.68a3.23,3.23,0,0,0-.72,0,3.8,3.8,0,0,0-1,.41,4.19,4.19,0,0,0-.7.42q-.21-.69-.46-1.37c-.15-.41-.29-.83-.46-1.24a2.68,2.68,0,0,0-.91-1.08c-.81-.61-2,0-2.69.45-.27.16-.54.34-.79.52h0a2.22,2.22,0,0,0-.69-.89,2.71,2.71,0,0,0-1-.54,2.35,2.35,0,0,0-1.75.33l-.23.12a2.29,2.29,0,0,0-.54.14,13,13,0,0,0-3.88,2.66,32.57,32.57,0,0,0-3.16,3.27H147a1.47,1.47,0,0,0-.63,0,3.67,3.67,0,0,0-.89.41,13,13,0,0,0-2.41,1.86c-.12-.2-.24-.4-.36-.6a32.88,32.88,0,0,0-1.82-2.76,5.3,5.3,0,0,0-.81-.85,1.47,1.47,0,0,0-1.19-.12,5.2,5.2,0,0,0-1,.42,10.28,10.28,0,0,0-1.16.74,18.46,18.46,0,0,0-2.54,2.24c-.44-.9-.91-1.79-1.38-2.68-.28-.54-.58-1.06-.88-1.58l-.65-1.15a8.56,8.56,0,0,0-.83-1.49c-.31-.35-1-.25-1.37-.14a5.19,5.19,0,0,0-1.08.48,12,12,0,0,0-2.67,2.12l-.16-.45-1-2.79-.48-1.4q-.24-.68-.53-1.34a15.32,15.32,0,0,0-.75-1.35l-.33,0a4.45,4.45,0,0,0-.72.33c-.05-.32-.1-.64-.15-1a8.53,8.53,0,0,0-.35-1.4,7.61,7.61,0,0,0-.73-1.32.88.88,0,0,0-.85.21,10.13,10.13,0,0,0-1.54,1.15l-.33.3v-.34c0-.45.06-.89.11-1.34a5.73,5.73,0,0,0,0-1.24,3.72,3.72,0,0,0-.13-.76c-.08-.25-.27-.31-.49-.42l-.1,0c-.1-1-.21-2.09-.35-3.13a1.8,1.8,0,0,0-.24-1,.42.42,0,0,0-.33-.1h-.32m106.12,23.14h0v0m-92.73,6.86.35.86-.17.12q-.08-.49-.18-1m93.48,10.36-.05.76v.09l-.3,1.69a2.42,2.42,0,0,1-.68-1.35q0-.2,0-.39a11.91,11.91,0,0,0,1-.81"/><path class="cls-3" d="M238.46,291.08a25.79,25.79,0,0,0-3.72,1c-.65.24-1.29.49-1.94.75s-1.22.52-1.82.82a24.44,24.44,0,0,0-3.07,1.89c-1.19.82-2.28,1.8-3.41,2.71L223,299.52c-1.08.89-2.15,1.79-3.24,2.67l.44-.36a26.21,26.21,0,0,0-4.77,4.83,5,5,0,0,0-.67,1.07,4.92,4.92,0,0,0-.48,1q-.12.53.4.41a16.84,16.84,0,0,0,2-.93c.4-.23.8-.47,1.19-.72l1.4-.9c1-.62,1.92-1.27,2.87-1.91a.68.68,0,0,1,.25.33c0,.82.23,1.8,1.14,2a8.07,8.07,0,0,1,1.36.28,2.28,2.28,0,0,1,.65.41.85.85,0,0,1,.26.5,3,3,0,0,0,.46,2.23.71.71,0,0,0,.24.15l-.11.12a11.94,11.94,0,0,0-1.5,2.13,1,1,0,0,0-.22.91,4.42,4.42,0,0,0,.79.51,2.6,2.6,0,0,0,.79.11c.24,0,.47,0,.71,0a10.34,10.34,0,0,0,1.3-.16q-.44.49-.84,1l-.44.67a.83.83,0,0,0-.19.8l1.61,1.43c.44.38.88.76,1.34,1.12a1.78,1.78,0,0,0,.91.32,1.12,1.12,0,0,0,.48,0l.17-.06a3.48,3.48,0,0,0,.67-.32,10.23,10.23,0,0,0,1.73-1.32,23.88,23.88,0,0,0,2.46-2.64,6.42,6.42,0,0,0,1.27-2.66,6.34,6.34,0,0,0-.08-2.35,7.9,7.9,0,0,0-.72-2,3,3,0,0,0,.22-.38,2.41,2.41,0,0,0,.37-1.66.9.9,0,0,0-.49-.58,4.53,4.53,0,0,0-1-.45c-.51-.17-1-.32-1.53-.46l-.82-.23a1.68,1.68,0,0,1-.83-.49,1.47,1.47,0,0,1-.27-.75,5.43,5.43,0,0,0-.13-1.53c-.16-.48-.84-.66-1.27-.78a4.34,4.34,0,0,1-1.48-.41,1.63,1.63,0,0,1-.54-1.05,5,5,0,0,0,0-.63,31.64,31.64,0,0,1,4.09-1.3,4.82,4.82,0,0,0,1.43-.81,18,18,0,0,0,2.93-2.75,11.63,11.63,0,0,0,1.31-1.76c.11-.22.57-1,0-1l-.15,0m-16.31,13.56h0l-.63.42.62-.42m13.63,9.66,0,0,0,0"/><path class="cls-3" d="M267,349.43l-7.68,3.49c-1.06.48-2.13,1-3.18,1.45l-2.23,1c-.69.33-1.37.7-2,1.08s-1.1.69-1.64,1.05c-.16,0-.32.1-.47.15-.45.16-.9.33-1.35.51l-1.33.53-1.19.48-1,.43c-1.65.37-3.3.77-4.94,1.15a3.15,3.15,0,0,0-.94.54,11.82,11.82,0,0,0-1.93,1.81,7.62,7.62,0,0,0-.86,1.16c-.07.14-.43.79.08.67l3.57-.85a3.42,3.42,0,0,0-.2.45q-.09.36.28.28a2.81,2.81,0,0,0,.79-.08,5.8,5.8,0,0,0,.75-.31l.88-.37a7.27,7.27,0,0,0,1.85-.93l.61-.5.25-.08a2.19,2.19,0,0,0-.28.59.49.49,0,0,0,.19.61.82.82,0,0,0,.78-.19,11,11,0,0,0,2.55-1.83c.36-.34.73-.68,1.08-1,1.06-.54,2.14-1,3.22-1.51,3.28-1.42,6.58-2.8,9.85-4.24a4.41,4.41,0,0,0,1.31-.75,16.54,16.54,0,0,0,2.68-2.52l.71-.87a4.42,4.42,0,0,0,.75-1.31l0-.33a1,1,0,0,0-.26,0,1,1,0,0,0-.63.25"/><path class="cls-4" d="M178.58,4.21c-.79,0-1.57.14-2.36.22a31.77,31.77,0,0,1-4.36.11c-1.43-.06-2.86-.19-4.29-.25a25.84,25.84,0,0,0-4.46.18c-.7.1-1.41.23-2.1.36-1.52.28-3,.6-4.55.94-2.76.61-5.48,1.45-8.16,2.32S142.8,10,140,10.85s-5.8,1.8-8.73,2.61c-1.27.35-2.55.68-3.81,1.06-1,.3-2,.6-3,1A34.46,34.46,0,0,0,118,18.73c-1.28.82-2.52,1.69-3.76,2.56S112.05,23,111,23.91a59,59,0,0,0-5,4.6c-2.64,2.72-5.18,5.53-7.68,8.38a96.89,96.89,0,0,0-9.09,11.59,28.85,28.85,0,0,0-2,3.86c-1.17,1.49-2.3,3-3.47,4.52-2.19,2.59-4.44,5.14-6.42,7.91A45.3,45.3,0,0,0,71.51,75.3a61.32,61.32,0,0,0-2.16,8.42c-.58,2.74-1.09,5.47-1.42,8.25-.09.74-.16,1.48-.25,2.22l-.27.76a9.67,9.67,0,0,0-1.2,2.3c-.28,1-.49,2-.69,3s-.39,1.94-.54,2.92l-.42,1.71a14.09,14.09,0,0,0-.6,3.31q-.25,1,.8.8l1.05-.46-.36,1.05a20.69,20.69,0,0,0-1.11,4l0,.25-.06.12q-.49,1-1,2c-.74,1.55-1.47,3.14-2.1,4.74s-1.13,2.92-1.63,4.41c-.42,1.25-.77,2.52-1.12,3.79a57.07,57.07,0,0,1-1.9,6.11c-.23.47-.49.93-.76,1.38-.87,1.2-1.81,2.35-2.74,3.5-.45.55-.88,1.12-1.32,1.68-.31.4-.61.81-.9,1.22a25.19,25.19,0,0,0-1.78,2.81,15.11,15.11,0,0,0-.77,1.78,3.11,3.11,0,0,0,0,1.4,1,1,0,0,0,.89.83,5.94,5.94,0,0,0,1.64,1.64,17,17,0,0,0,2,1.19l2.1,1.1c.91.47,1.79,1,2.74,1.39a11.7,11.7,0,0,0,2.65.68,16.11,16.11,0,0,0,3.45.18,11.26,11.26,0,0,0,1.58-.24l-.5.8-.69,1.57q-.31,1.31,1,1a68.52,68.52,0,0,0,9.49-3.94,36.28,36.28,0,0,0,3.63-2A51.89,51.89,0,0,0,84,148.65a39.24,39.24,0,0,0,3.37-3.15,44.57,44.57,0,0,0,4.92-5.69,22.87,22.87,0,0,0,1.83-2.93c.32-.69.63-1.38.92-2.08.13-.32.27-.64.39-1,.48-1.25,1-2.5,1.47-3.74.52-1.05,1.06-2.1,1.61-3.14.86-1.63,1.66-3.28,2.41-5,1.13-2.56,2.29-5.13,3.2-7.77s1.83-5.38,2.59-8.12c.36-1.29.57-2.62.81-3.93s.41-2.62.58-3.93a21.63,21.63,0,0,0,.23-3.65,18.46,18.46,0,0,0-.76-4.15q-.53-1.91-1.12-3.79c-.8-2.56-1.65-5.12-2.64-7.61-1.06-2.67-2.19-5.32-3.22-8l-.37-1,1.3,1c.87.65,1.75,1.28,2.62,1.91,1.7,1.24,3.43,2.41,5.19,3.55,3.37,2.18,6.87,4.14,10.24,6.32.89.58,1.78,1.15,2.69,1.7s1.78,1,2.69,1.5c1.64.87,3.36,1.55,5.07,2.27,1.87.8,3.72,1.63,5.55,2.52s3.76,1.72,5.67,2.52a41.39,41.39,0,0,1,5.28,2.72l2.64,1.6a26.18,26.18,0,0,0,6.64,2.86c2,.55,4,1.06,6.1,1.52,1.83.4,3.66.75,5.5,1.11,4.15.81,8.32,1.49,12.49,2.21l12.13,2.1a85,85,0,0,0,12.63,1.07c1.08,0,2.15,0,3.22,0l.13.16a5,5,0,0,0,1.32,1.15,5.8,5.8,0,0,0,2.51.47,14.39,14.39,0,0,0,2,0c.48,0,1-.06,1.43-.06a1.38,1.38,0,0,1,.58.37,5.1,5.1,0,0,1,.37.48,2.86,2.86,0,0,0,1.64,1c.64.17,1.28.3,1.93.43a25.7,25.7,0,0,0,5.06.53c2.79,0,5.57-.35,8.36-.37s5.31,0,8-.23a17,17,0,0,0,4-.69,17.67,17.67,0,0,0,3.49-1.67l1.71-1.1.68-.42.19,0a12.86,12.86,0,0,1,3.68,2.21,10.5,10.5,0,0,0,1.77,1.07c.63.29,1.27.52,1.92.77,1.35.51,2.68,1,4.05,1.47s2.71.76,4.09,1.06c2.9.63,5.81,1.29,8.68,2a62.46,62.46,0,0,0,8.5,2c4.69.56,9.42.83,14.13,1.25,1.28.14,2.57.3,3.85.42l1.73.14-.48.77-.73,1.64q-.32,1.38,1.05,1.05a112.27,112.27,0,0,0,12.68-1.73,13.84,13.84,0,0,0,4.07-2.31l1.83-.81c1.71-.73,3.44-1.41,5.17-2.09,1.06-.42,2.1-.88,3.12-1.38a24.21,24.21,0,0,0,3.15-2c.64-.19,1.28-.39,1.91-.65a22.07,22.07,0,0,0,2.27-1,24.82,24.82,0,0,0,2.15-1.42,43.36,43.36,0,0,0,4.51-4l2.13-2.27a25.86,25.86,0,0,0,2.92-3.91c.37-.7.85-1.4.54-2.21-.08-.22-1.1-.2-.94-.18l-.29,0-.34-.06,0-.1a7.12,7.12,0,0,0,.89-2.39,3.21,3.21,0,0,0-.41-2,3.26,3.26,0,0,0-1.41-1,8.17,8.17,0,0,0-1.56-.39c-.4-.08-.8-.15-1.2-.21q-1-.15-2.06-.26c-2.23-1.47-4.56-2.78-6.74-4.32-1.18-.83-2.36-1.66-3.59-2.43s-2.34-1.41-3.51-2.11l-.93-.56a2.77,2.77,0,0,0-.1-1,1.8,1.8,0,0,0-.45-.17,5,5,0,0,1-.56-.28l-.35-.16-1.32-.6c-.53-.24-1.07-.48-1.59-.74-1.3-.64-2.62-1.26-3.91-2L318,76.93c-1.86-1.17-3.68-2.4-5.5-3.64-1.37-.93-2.69-1.94-4.1-2.82q-.49-.3-1-.59c-.85-.68-1.7-1.35-2.56-2a32.67,32.67,0,0,0-7.14-3.92c-1.23-.52-2.46-1-3.66-1.61s-2.58-1.32-3.91-1.92a2.53,2.53,0,0,0-.68-.1,2.45,2.45,0,0,0-1.62.65l-1.92,1.28-.55.42c-.74-.89-1.48-1.77-2.24-2.64-1.56-1.78-3.33-3.38-5-5s-3.64-3.3-5.51-4.89-3.84-3.16-5.87-4.6a63.88,63.88,0,0,0-6.29-3.71c-2-1.12-4.06-2.27-6.11-3.36-2.35-1.24-4.71-2.46-7.05-3.71-2.06-1.1-4.1-2.26-6.16-3.36-4.32-2.31-8.6-4.71-12.91-7.05a113.84,113.84,0,0,0-13.66-6.4c-2.42-.93-4.84-1.79-7.3-2.58-2-.63-4-1.14-6-1.62a30.5,30.5,0,0,0,3-4.1L204.95,8q.32-1.35-1-1l-3.68-.37c-1.2-.15-2.38-.32-3.58-.51s-2.4-.54-3.62-.7c-1.55-.2-3.08-.29-4.64-.36-1.16-.05-2.31-.15-3.46-.26-1.43-.17-2.87-.36-4.31-.48-.54,0-1.08-.09-1.63-.09h-.42M107,38.56h0l-.28.27.28-.27M93.08,55.88l-.22.18h0l.22-.17m4.58,5.37-.23.28h0l.23-.28m-9.78,43.32c-.31-3-.59-6.06-.88-9.09-.08-.84-.1-1.69-.15-2.53l-.33-6.13-.18-3.36c-.06-1.18-.06-2.35-.06-3.53,0-.9,0-1.79-.1-2.69,0-.45-.09-.89-.16-1.33a1.45,1.45,0,0,0-.18-.64l-.1-.14.36-.82c.42-.94.86-1.87,1.33-2.77a25.52,25.52,0,0,0,.78,2.67c.35,1,.67,2,1,3,0,2.06-.08,4.12-.17,6.18q-.21,5.34-.43,10.68c-.1,2.58-.32,5.16-.51,7.74l-.21,3,0-.25M273.82,85.83l.29.29h0l-.29-.29M85.4,123.74a13.37,13.37,0,0,0,4.29-3.22,15.65,15.65,0,0,0,3.85-5.58,13.33,13.33,0,0,0,.55-2.36q.23-1.35.48-2.7c.38-2,.63-4.12.84-6.19.12-1.16.27-2.32.31-3.49q.1-2.51.2-5c.11.44.21.89.3,1.34.24,1.18.43,2.36.58,3.56a27.12,27.12,0,0,1-.61,7.73c-.31,1.53-.63,3.06-1,4.59a64,64,0,0,1-2.41,8.38q-.9,2.55-1.92,5l-.93,2a45.55,45.55,0,0,0-4.76,5.33c-.82,1.07-1.57,2.18-2.3,3.32-.25.39-.48.79-.72,1.19l-.46.65-.7.51a31,31,0,0,1-2.83,1.55,21,21,0,0,1-2.1.72,8.57,8.57,0,0,1-2.19.43,5.92,5.92,0,0,1-2-1,18,18,0,0,0,1.15-1.4c.31-.42.59-.87.88-1.31.08-.12.15-.24.21-.36a18,18,0,0,0,2.39-3c.49-.79,1-1.56,1.52-2.35a17.59,17.59,0,0,0,1.52-3.34,44.13,44.13,0,0,0,1.54-5.85c.42-2,.73-4.08,1-6.14.09-.67.18-1.35.27-2q.66,3.27,1.35,6.53c.18.87.33,1.76.49,2.63l.4,0c.25-.08.52-.11.76-.2M62,135.37l.6-.79v.13c0,.36,0,.73.07,1.09a1,1,0,0,1-.67-.43"/><path class="cls-4" d="M105.14,67l-1.37.91a33.83,33.83,0,0,0-6.22,6.22l-.91,1.37a1.69,1.69,0,0,0-.39,1.64,71.76,71.76,0,0,1,8.7,4.75c2.85,1.79,5.66,3.76,8.87,4.87a27.1,27.1,0,0,0,8,1.26c.87,0,1.75,0,2.62.07l.53.1a1.84,1.84,0,0,0,1.78-.43l1.49-1a33.77,33.77,0,0,0,3.6-3.16l1.75-1.87a21.26,21.26,0,0,0,2.4-3.22l.5-1.13q.22-.95-.72-.72a15.61,15.61,0,0,0-3.81.69,20.21,20.21,0,0,1-5.35.36,16.21,16.21,0,0,1-5.21-1.66,36,36,0,0,1-4.72-3.22,59.31,59.31,0,0,0-9.91-6.24,1.8,1.8,0,0,0-.48-.07,1.75,1.75,0,0,0-1.15.46"/><path class="cls-4" d="M96.21,63.12a8.32,8.32,0,0,0-3.13,1.68A38.21,38.21,0,0,0,87.56,70a17,17,0,0,0-3.72,6.15A29.48,29.48,0,0,0,83,83c-.08,1.36-.05,2.73-.08,4.1s0,2.84,0,4.26c0,2.76.25,5.51.34,8.27q0,.9,0,1.8c0,.27,0,.54,0,.8,0,.69-.05,1.39,0,2.09v.08q-.23,1,.76.76l.28-.12-.12.09a20.27,20.27,0,0,0-3.07,2.29,37.75,37.75,0,0,0-3.45,3.45l-1.34,1.65A8.39,8.39,0,0,0,74.84,115c-.17,1.17-.25,2.37-.38,3.54-.09.82-.22,1.64-.33,2.46a46.79,46.79,0,0,1-2.83,11.52q-.26.55-.54,1.08A30.55,30.55,0,0,0,68,136.92l-1.05,1.58a2,2,0,0,0-.45,1.89l.69.08a9.4,9.4,0,0,0,1.11-.49q-.94,1.06-1.8,2.19a22.29,22.29,0,0,0-1.29,2l-.57,1.29q-.25,1.08.83.83a9.13,9.13,0,0,0,2.6-.82c.94-.39,1.87-.8,2.77-1.26l.05,0a5.26,5.26,0,0,0-.16.6q-.27,1.15.88.88A2.94,2.94,0,0,0,73.2,145a17.54,17.54,0,0,0,2.15-1.44,49.77,49.77,0,0,0,4.76-4.19c.94-1,1.87-1.95,2.77-3s1.92-2.29,2.85-3.45c.37-.46.72-.92,1.07-1.4,1.51-1.61,2.93-3.28,4.31-5,.91-1.15,1.71-2.38,2.52-3.6a26.12,26.12,0,0,0,1.55-2.66,37.71,37.71,0,0,0,2.53-6.59c.21-.74.38-1.49.57-2.23s.37-1.51.54-2.27a48.18,48.18,0,0,0,3.27-7.81,15.84,15.84,0,0,0,.67-6.1,11.77,11.77,0,0,0-.62-3.11,3.6,3.6,0,0,0-.57-1,2,2,0,0,0-1.54-.38,10.63,10.63,0,0,0-2.78,1.58c-.59.43-1.25,1-1.88,1.54v0l0-.06A4.5,4.5,0,0,0,95.54,92c0-.34,0-.68,0-1l-.07-1.44c0-.86-.05-1.73-.13-2.58q-.26-2.91-.57-5.81c-.09-.92-.17-1.85-.31-2.77a1.81,1.81,0,0,0-.64-.07q0-1.69.1-3.38A23.07,23.07,0,0,1,100,77.22q2,1.15,4,2.33c1.23.74,2.49,1.41,3.75,2.1s2.33,1.15,3.49,1.72,2.29,1.1,3.43,1.65c.65.31,1.26.7,1.89,1.05s.94.56,1.41.87l.3.2a9.17,9.17,0,0,0-.41,1,1.87,1.87,0,0,0,.3,1.62,5.37,5.37,0,0,0,.92.87,7.86,7.86,0,0,0,1.09.79,16.3,16.3,0,0,0,1.64.8,4.22,4.22,0,0,0,.68.24,4.66,4.66,0,0,0,1.17.16,3.58,3.58,0,0,0,1.66-.59q.87-.52,1.68-1.13t1.33-1.06l.64.1c.6.07,1.19.16,1.79.21a7.93,7.93,0,0,0,1.77.07,9.38,9.38,0,0,0,2.78-1.58,39.06,39.06,0,0,0,7.19-7.19l1.05-1.58a2,2,0,0,0,.46-1.89,4.53,4.53,0,0,0-1.44-.21c-1.32-.18-2.61-.46-3.92-.7a1.91,1.91,0,0,0-1.65.27l-.38-.09a24.4,24.4,0,0,0-4.76-.61l-.92,0h-.23L129.58,76c-1.33-.69-2.68-1.26-4.05-1.85-2.55-1.09-5.21-2-7.71-3.17-1.41-.69-2.8-1.37-4.17-2.12s-2.71-1.53-4.08-2.26A30.89,30.89,0,0,0,99.5,63.45a19.07,19.07,0,0,0-2.8-.35l-.49,0m-13,41.31q0,.1,0,.21l0-.2h0"/><path class="cls-4" d="M108.73,82.67l-1.14.5a21.48,21.48,0,0,0-3.25,2.42,39.86,39.86,0,0,0-3.65,3.65L99.27,91a8.87,8.87,0,0,0-1.5,2.64,89.8,89.8,0,0,1-2.7,8.88c-.64,1.8-1.26,3.61-1.94,5.4a2,2,0,0,0-.34.9q-.3.77-.62,1.54l-.28.66c-1.15,2.47-2.32,4.93-3.46,7.4l-.76,1.66-1,1.22a10.7,10.7,0,0,0-1.81,3.17c-.49,1.58-1,3.19-1.5,4.77l-2,3.47c-1.07,1.89-2.31,3.66-3.51,5.47l1.24-1.85c-1.28,1.77-2.57,3.53-3.85,5.29h0q-.68.94-1.29,1.93L73.33,145q-.29,1.23.94.94l1.46-.65a27.69,27.69,0,0,0,4.18-3.11l2.42-2.27a43.89,43.89,0,0,0,4.1-4.67c2.11-3,4.13-6,6-9.15l.21-.34a38.06,38.06,0,0,0,4.72-9.07c.38-1.12.77-2.23,1.14-3.35l.39-1q1-2.73,2.15-5.44c.92-2,1.87-3.92,2.75-5.9l.75-1.69.22-.49q.19-.39.35-.79l1-2.45c.46-1.17.88-2.37,1.27-3.56s.92-2.68,1.22-4.06.59-2.7.81-4.06c0-.16,0-.32.07-.49q.18-.77-.41-.77a1.42,1.42,0,0,0-.32,0M103.83,101l-.48,1.09.53-1.19,0,.1"/><path class="cls-4" d="M133,82.8l-1.1.73a27,27,0,0,0-5,5l-.73,1.1a1.36,1.36,0,0,0-.32,1.31l1,.58.28.16a2.85,2.85,0,0,0,0,1.88,2.76,2.76,0,0,0,1.38,1.38,2.81,2.81,0,0,0,1.36.17h.37a7.79,7.79,0,0,1,2.75,1.24c.65.42,1.32.82,2,1.21l2,1.2.42.23a2.51,2.51,0,0,0,.64.24,2.32,2.32,0,0,0,1.92-.44l.71-.47a5.13,5.13,0,0,1,.93.41,10.15,10.15,0,0,1,1.53,1.23,16.72,16.72,0,0,0,3.24,2.17c1.16.59,2.33,1.16,3.48,1.76.55.29,1.11.57,1.68.81a7.66,7.66,0,0,0,1.65.44,19.34,19.34,0,0,0,2.59.37,20,20,0,0,0,2.48-.09q2.57-.21,5.12-.52a8.44,8.44,0,0,0,2.5-1.43A35.21,35.21,0,0,0,172.46,97l1-1.42a1.77,1.77,0,0,0,.41-1.71c-1.8-.32-3.62-.59-5.38-1.05-.83-.21-1.64-.47-2.46-.7a16.87,16.87,0,0,0-3.22-.4,15.9,15.9,0,0,1-3.29-.72,37.37,37.37,0,0,1-3.64-1.48c-.57-.27-1.13-.56-1.71-.83a8.8,8.8,0,0,0-1.86-.54c-.66-.14-1.31-.27-2-.38l-.78-.13a7.2,7.2,0,0,0-.95-.08,3.86,3.86,0,0,0-1.51.71,17.94,17.94,0,0,1-3.2-1.21c-.69-.32-1.38-.65-2.08-.94a8.26,8.26,0,0,0-1.6-.48,3.83,3.83,0,0,0-1.85,0,4.24,4.24,0,0,1-1,.23,2.54,2.54,0,0,1-.89-.45,2.3,2.3,0,0,0,.6-2.25c-.16-.33-.85-.29-1.13-.22l-.43.18-.11-.06-1-.58a1.44,1.44,0,0,0-.39-.06,1.4,1.4,0,0,0-.92.37"/><path class="cls-4" d="M143.06,98.39a13.32,13.32,0,0,0-3,2.42,19.83,19.83,0,0,0-1.84,2.1l-.58.87a1.08,1.08,0,0,0-.25,1c.89.86,1.77,1.75,2.72,2.53.33.27.65.54,1,.78a2.63,2.63,0,0,0,.84.41,1.26,1.26,0,0,0,.55,0,8.82,8.82,0,0,0,.89.61,18,18,0,0,0,2.49,1.18l.66.25a5.92,5.92,0,0,0,.62.2,1.85,1.85,0,0,0,1.6-.23h0c.5.31,1,.61,1.5.94a22.33,22.33,0,0,1,3.25,2.43c.48.46,1,.93,1.4,1.43s.86,1,1.32,1.49c1,1,1.93,2,2.8,3,.41.5.79,1,1.19,1.55a10.05,10.05,0,0,0,1.37,1.41,10.75,10.75,0,0,0,3.14,2.06c.54.2,1.1.3,1.62.55a1.39,1.39,0,0,0,.93.11,8.91,8.91,0,0,0,1.21-.52l1.08-.72a24.58,24.58,0,0,0,2.61-2.29l1.27-1.35a15.55,15.55,0,0,0,1.74-2.34,2.86,2.86,0,0,0,.41-1.1c0-.22.07-.5-.12-.64a.87.87,0,0,0-.23-.11c-.54-.2-1.11-.32-1.65-.54a11.88,11.88,0,0,1-1.63-.83,27.82,27.82,0,0,1-3.18-2.3q-1.54-1.24-3.13-2.4t-3.41-2.57A26.88,26.88,0,0,0,159,105.8l-2.75-1.58-1.39-.79-.54-.32-.44-.27-.14-.08-.28-.24a1.08,1.08,0,0,0-1,.25,12.46,12.46,0,0,0-1.32.93h0a9.63,9.63,0,0,1-2.21-1.19l-.19-.14a1.17,1.17,0,0,0,0-.51,2.78,2.78,0,0,0-.43-.85c-.24-.34-.44-.65-.87-.72a1,1,0,0,0-1,.23h0l-.43-.44-1.9-2a1.14,1.14,0,0,0-.31,0,1.11,1.11,0,0,0-.73.29"/><path class="cls-4" d="M140.88,95.56a2.88,2.88,0,0,0-1,.38,13,13,0,0,0-2.08,1.56,19.29,19.29,0,0,0-3.12,3.33,9.53,9.53,0,0,0-.7,1.12c-.29-.18-.59-.36-.9-.52s-.61-.29-.93-.42l-.4-.15a2,2,0,0,0-.57-.08h-.07l-.39-.29-.51-.38a2.41,2.41,0,0,0-.72-.47,1,1,0,0,0-1,.24,11.86,11.86,0,0,0-1.79,1.33,22.1,22.1,0,0,0-2,2l-.78,1a4.89,4.89,0,0,0-.83,1.45,2.13,2.13,0,0,0,0,.36h0a.65.65,0,0,0,.09.21,3,3,0,0,0,.59.54c.29.24.6.46.91.68l.06,0h0a2.6,2.6,0,0,0,.48.33l.5.37a5.12,5.12,0,0,1,2.24,2.91,9.08,9.08,0,0,1-.67,3.29c-.17.47-.36.93-.53,1.39-.08.2-.14.41-.21.61a2.08,2.08,0,0,0-.18.66l0,.39a1.1,1.1,0,0,0,1.07-.26,9.21,9.21,0,0,0,1-.63,18.63,18.63,0,0,1,1.62-.92,21.67,21.67,0,0,1,3.41-.9,14.71,14.71,0,0,1,3.52-.18l1.17.16a3.15,3.15,0,0,0,1.66,0,8.2,8.2,0,0,0,1.54-.86h.11a10.2,10.2,0,0,1,3.35,1.62l.11.07.32.51a9.8,9.8,0,0,0,1.16,1.5,1.74,1.74,0,0,0,1.45.42,3.83,3.83,0,0,0,.78-.36,13.75,13.75,0,0,0,2.08-1.55,25.62,25.62,0,0,0,2.34-2.34,13.76,13.76,0,0,0,1.55-2.08l.1-.2c.79.21,1.6.33,2.4.49a6.74,6.74,0,0,1,3.48,1.39,13.22,13.22,0,0,1,1.29,1.43c.43.53.87,1,1.29,1.57a14.56,14.56,0,0,1,1.12,1.74c.65,1.13,1.26,2.3,2,3.38a11.83,11.83,0,0,0,1,1.34l.22.24c-.24.38-.43.82-.24,1,.6.64,1.22,1.27,1.77,1.95a17.16,17.16,0,0,1,1.4,2.09,2.12,2.12,0,0,0,.38.51c.16.15.37.22.53.38a1.65,1.65,0,0,1,.25.51l0,.07,0,.06c-.09.3-.32.83-.13,1.11a1,1,0,0,0,1-.24,12.63,12.63,0,0,0,2.82-2.3,18.76,18.76,0,0,0,1.75-2,4.07,4.07,0,0,0,.79-1.36,8.58,8.58,0,0,0,.34-1l.32-.52.17-.24c.24-.33.45-.63.67-1a5.91,5.91,0,0,0,.44-.93.82.82,0,0,0-.33-.89,3.14,3.14,0,0,0-.4-.26c-.38-.21-.83,0-1.15.21a8.85,8.85,0,0,0-1.15.77c-.44-.56-.92-1.09-1.38-1.63s-.92-1-1.35-1.54-.72-.87-1-1.34-.5-.83-.73-1.25c-.68-1.22-1.26-2.49-1.88-3.73a27.29,27.29,0,0,0-2.16-3.38,17.79,17.79,0,0,0-1.23-1.64,5.23,5.23,0,0,0-3.21-1.29,17.55,17.55,0,0,1-3.81-1,13.62,13.62,0,0,1-3.95-2.73c-.51-.46-1-.95-1.55-1.38s-.8-.64-1.23-.93a9.19,9.19,0,0,0-1.64-.83,27.54,27.54,0,0,0-3.92-.89,12.92,12.92,0,0,1-2-.74l-1-.44a2.42,2.42,0,0,0-1.14-.33,2.17,2.17,0,0,0-1,.35l0,0a4.06,4.06,0,0,0-.6-.51,1.79,1.79,0,0,0-.92-.26h-.12m-.35,16.91-.3.42.24-.36.06-.06"/><path class="cls-4" d="M240.83,109.56a13.65,13.65,0,0,0-2.06,1.53,25.33,25.33,0,0,0-2.13,2.1,18.86,18.86,0,0,1-2.52-1.2,6.47,6.47,0,0,0-2.7-1.07,1.84,1.84,0,0,0-.91.26c-.26-.22-.46-.51-.75-.73l-.14,0a.74.74,0,0,0-.51,0,7.12,7.12,0,0,0-2.52,1.68,23.9,23.9,0,0,0-2.19,2.19,9.48,9.48,0,0,0-1.75,2.65,4.11,4.11,0,0,0-.24,1,2.67,2.67,0,0,0-.62-.65,2.92,2.92,0,0,0-1.56-.41,3.23,3.23,0,0,0-.71,0c-.15,0-.31,0-.46.05a2.36,2.36,0,0,1-.64-.28q-.22-.31-.45-.61a2.61,2.61,0,0,0-.91-.75,1.77,1.77,0,0,0-1.61.23,16.78,16.78,0,0,0-3.29,2.67,12.22,12.22,0,0,0-2.91,4l0,.22a.71.71,0,0,0,.09.48,2.14,2.14,0,0,0,.14.21c.08.13.16.26.23.39a3,3,0,0,1,.3.9l.06.34q0,.24,0,.48a17.67,17.67,0,0,0-1.56,1.43,20.37,20.37,0,0,0-2,2.21,11.47,11.47,0,0,0-.9,1.41c-.14.28-.28.56-.44.83-.25.42-.62,1-.43,1.54a2.06,2.06,0,0,0,.51.76,6.05,6.05,0,0,0,.88.69,3.94,3.94,0,0,0,2.5.47,7.26,7.26,0,0,0,2.07-.47c1.25-.46,2.46-1,3.71-1.47.33-.12.67-.22,1-.33a5.77,5.77,0,0,0,1.73-1l.68-.54c.12.19.23.38.36.56a3.37,3.37,0,0,0,1.21,1.14,2.31,2.31,0,0,0,1,.16,1.32,1.32,0,0,0,.44-.09l.19.1a1,1,0,0,0,.64,0,3.25,3.25,0,0,0,.61-.26,5.51,5.51,0,0,0,2-.4,18.42,18.42,0,0,0,1.8-.8,12.58,12.58,0,0,0,1.53-1,15.71,15.71,0,0,0,2-1.63l0,0c.38.22.74.47,1.09.73a4.82,4.82,0,0,0,.74.47,2.48,2.48,0,0,0,1.77,0,10.92,10.92,0,0,0,2.11-.94,17.14,17.14,0,0,0,1.51-1c.55-.4,1.08-.84,1.59-1.28l.58-.51h0a9.5,9.5,0,0,1,4,1.64c.2.14.39.29.59.44a3.14,3.14,0,0,0,2.08.92,3.83,3.83,0,0,0,1.53-.63,1.17,1.17,0,0,0,.44.83,2.23,2.23,0,0,0,.64.4,2.17,2.17,0,0,0,1.69-.41,10.27,10.27,0,0,0,1.48-1c.56-.42,1.09-.86,1.62-1.31a5.92,5.92,0,0,0,1.36-.84,24.72,24.72,0,0,0,4.54-4.54l.67-1a1.24,1.24,0,0,0,.29-1.2.77.77,0,0,0-.65,0l-.35.07.32-.47a1.31,1.31,0,0,0,.3-1.26,4.45,4.45,0,0,0-.59-.82c-.21-.31-.41-.62-.62-.93-.36-.57-.67-1.18-1-1.77l-.17-.32c0-.14,0-.29.06-.43l.06-.4a4.56,4.56,0,0,0,0-1.24c0-.33-.58-.27-.79-.25a1.37,1.37,0,0,0-.32.09c-.06-.18-.12-.37-.17-.55s0-.24,0-.36a2.34,2.34,0,0,0-.13-.88,1.26,1.26,0,0,0-1.22.29,14.53,14.53,0,0,0-2.21,1.64A27,27,0,0,0,250.5,114l-.69-.36c-.87-.44-1.78-.84-2.67-1.24s-1.84-.8-2.72-1.27a9.26,9.26,0,0,1-1.32-.83c-.41-.31-.72-.73-1.13-1a1.25,1.25,0,0,0-.34,0,1.21,1.21,0,0,0-.8.32"/><path class="cls-4" d="M268.89,115.94l-.94.62a23.11,23.11,0,0,0-4.25,4.25l-.62.94a1.16,1.16,0,0,0-.27,1.12,18.71,18.71,0,0,0,1.66,2.46,14.46,14.46,0,0,0,2.36,2.27,17,17,0,0,0,5.88,2.83,16,16,0,0,0,6,.51l1.18-.13.77-.11a5.89,5.89,0,0,0,2.57-1.27,22.73,22.73,0,0,0,3.41-3.21,13.54,13.54,0,0,0,1.53-2.05,1.17,1.17,0,0,0,.27-1.14l0,0-.41,0-.3.12a19.53,19.53,0,0,1-6.2.68,15.31,15.31,0,0,1-6.72-2.59,16,16,0,0,1-4.78-5.53,1.23,1.23,0,0,0-.33,0,1.2,1.2,0,0,0-.79.32"/><path class="cls-4" d="M268.88,115.88l-.85.56a20.86,20.86,0,0,0-3.85,3.85l-.56.85a1,1,0,0,0-.24,1c2.07,1.14,4.14,2.27,6.27,3.28l2.82,1.31,1,.45a5.55,5.55,0,0,0,.71.25c.72.2,1.48-.45,2-.84a19.16,19.16,0,0,0,3.53-3.53l.57-.86a1,1,0,0,0,.19-1c-.05-.17-.33-.36-.46-.46a8.5,8.5,0,0,0-.81-.58.85.85,0,0,0-.83.2l0,0-1-.56-2.2-1.2c-1.76-1-3.49-2-5.24-3a1.12,1.12,0,0,0-.3,0,1.08,1.08,0,0,0-.71.29"/><path class="cls-4" d="M265.15,114.13l-.87.58a21.42,21.42,0,0,0-3.94,3.94s-1.31,1.73-.83,1.9c1.91.68,3.83,1.29,5.75,1.91.7.23,1.42.42,2.13.61a18.47,18.47,0,0,0-2,2.24,7.53,7.53,0,0,0-1,1.77,4.9,4.9,0,0,0-.28,1.44c-.06.58-.08,1.16-.09,1.74a5,5,0,0,0-.65,1.19,5.74,5.74,0,0,0,0,2.47q0,.24.05.48a4.61,4.61,0,0,0-.77,1.77,10.38,10.38,0,0,0-.06,2.63c.09,1.1.28,2.19.47,3.27a46.9,46.9,0,0,0,1.54,6c.6,1.88,1.29,3.74,2.06,5.56a50.88,50.88,0,0,0,2.65,5.52q.36.75.76,1.48a28.85,28.85,0,0,0,3.28,4.78c.37.44.77.84,1.17,1.25a6.65,6.65,0,0,0,1.47,1.21,3.32,3.32,0,0,0,1.3.28,4,4,0,0,0,.87,0c.28,0,.55-.07.83-.12a6.05,6.05,0,0,0,2.18-1.08l.27,0a7,7,0,0,0,1.05.06,6.7,6.7,0,0,0,2.39-.62,11.68,11.68,0,0,0,1.62-.8l.29-.18a2.08,2.08,0,0,0,.76.1,6.06,6.06,0,0,0,1.8-1,25.28,25.28,0,0,0,4.65-4.65,6.06,6.06,0,0,0,1-1.8,4.81,4.81,0,0,0-.07-1.56q.12-.56-.46-.43l-.71.31a13.4,13.4,0,0,0-2,1.51q-.67.59-1.3,1.22a6.48,6.48,0,0,1-1.85.19l-.44-.09.22-.46a14.3,14.3,0,0,0,1-3.06,15.48,15.48,0,0,0,.25-3.12,38,38,0,0,0-.5-5.48q.36-.37.7-.75a6.77,6.77,0,0,0,1.45-2.18,4.34,4.34,0,0,0,.26-1.08,7.23,7.23,0,0,0-.05-1.2q-.14-1.37-.37-2.73c-.18-1.09-.39-2.19-.66-3.27-.32-1.31-.64-2.63-1-3.94-.28-1.08-.62-2.16-1-3.22-.19-.61-.38-1.21-.57-1.82l-.34-1.13c-.15-.48-.12-1-.57-1.34a.84.84,0,0,0-.74.13q-.05-.49-.1-1a5.19,5.19,0,0,1,0-.65c0-.32.08-.89-.31-1a.87.87,0,0,0-.3,0,12.48,12.48,0,0,0,.87-1.25,2,2,0,0,0,.31-.83.44.44,0,0,0-.1-.45.87.87,0,0,0-.44-.2,7.54,7.54,0,0,0-1.48-.16l-.46,0-.38-.05h0l0-.06c0-.09-.14-.1-.27-.06-.56-.25-1.12-.5-1.69-.71a16.58,16.58,0,0,0-4.92-1,6.16,6.16,0,0,0-1.17,0h-.09c-1.09-.3-2.18-.59-3.25-1-1.53-.53-3.06-1-4.58-1.58l-1.65-.61a1.15,1.15,0,0,0-.31,0,1.11,1.11,0,0,0-.73.29m21.1,10.28v.09h0v-.09m-12.72.05c1.24.24,2.48.46,3.72.71l.21,0,.05,0,.3.19a14.07,14.07,0,0,0-.05,2.25q0,.31,0,.62h0l-.19.17A17.24,17.24,0,0,0,276,130l-.33.38c-.29-.88-.64-1.74-1-2.59-.27-.6-.54-1.21-.85-1.79-.11-.52-.21-1-.29-1.58m9.53,27.74q0,.38.09.76a38,38,0,0,1,.25,4.66c-1.45-.4-3-.58-4.41-1a14.54,14.54,0,0,0,1.89-1.71l-.14.15a11.85,11.85,0,0,0,2.32-2.87m3.32,13.06h0"/><path class="cls-4" d="M284.44,119.42l-.67.3a12.7,12.7,0,0,0-1.92,1.43,23.68,23.68,0,0,0-2.16,2.16l-.84,1a5.25,5.25,0,0,0-.89,1.56,10.83,10.83,0,0,0-.08,1.23,9.71,9.71,0,0,0,.08,1.15,2.6,2.6,0,0,0,.47,1.14,10.08,10.08,0,0,0,1.28,1.41l.68.69,1.54,1.52a14.08,14.08,0,0,1,1.49,1.65,5.61,5.61,0,0,1,.95,2.52c.08,1.12,0,2.23,0,3.35a10.32,10.32,0,0,0,1.25,5.18q.85,2,1.66,3.94l.48,1.16-.13.19a1.27,1.27,0,0,0-.12.17l-.2-.13-1.76-1.18-.9-.6c-.37-.26-.74-.53-1.13-.76l-.48-.3a1.62,1.62,0,0,0-.82-.18l-.12,0a2.86,2.86,0,0,0-.75.36,13.82,13.82,0,0,0-1.9,1.43,24.37,24.37,0,0,0-2.78,3,5.79,5.79,0,0,0-.7,1.07,1.69,1.69,0,0,0-.3.93,2.91,2.91,0,0,0,.12.71,6.36,6.36,0,0,0,.59,1.28,11.85,11.85,0,0,0,1.68,2.2c.32.35.66.69,1,1a12.22,12.22,0,0,0-1.21,1.65c-.17.33-.44.76-.3,1.15a.84.84,0,0,0,.28.38,5.46,5.46,0,0,0,1,.68,14.19,14.19,0,0,0,2.71,1.1,19.88,19.88,0,0,0,4.8.82,20.21,20.21,0,0,0,2.6.06,9.83,9.83,0,0,0,2.22-.68,6,6,0,0,1,1.67-.21,4,4,0,0,0,2.16-.73l1-.67a22.85,22.85,0,0,0,2.44-2.14,19.24,19.24,0,0,0,2.29-2.58,7.25,7.25,0,0,0,1.11-2,2.42,2.42,0,0,0-.06-.91,5.14,5.14,0,0,0-.69-1.45l-.65-1.15c-.36-.64-.77-1.25-1.16-1.87-.71-1.16-1.41-2.32-2.07-3.51-1.41-2.54-2.62-5.17-3.77-7.82a18.75,18.75,0,0,1-1.6-5.18V135c-.12-1.34-.1-2.69-.28-4a6.34,6.34,0,0,0-1.09-2.74,13.59,13.59,0,0,0-1.79-1.93c-.59-.58-1.17-1.16-1.74-1.76a6.93,6.93,0,0,1-2.07-3.4,9.06,9.06,0,0,1,0-1.28q.11-.46-.24-.46l-.19,0m-7.87,35-.06,0,.06,0"/><path class="cls-4" d="M262.51,212a15.87,15.87,0,0,0-2.39,1.78,26.11,26.11,0,0,0-2.81,2.79,12.17,12.17,0,0,0-1.85,2.53,4.73,4.73,0,0,0-.49,1.47c0,.32-.07.63-.08,1q-.05,1-.06,2.09a34.23,34.23,0,0,0,.19,4.49l0,.23c-.14.88-.3,1.75-.45,2.63a36.52,36.52,0,0,1-1,4.27c-.41,1.35-.88,2.68-1.39,4q-.2.52-.42,1a15.18,15.18,0,0,0-.9,2.22,2.33,2.33,0,0,0,.15,2,4.49,4.49,0,0,0,1.72,1.2,10.29,10.29,0,0,0,8.41-.1,2.06,2.06,0,0,0,.19.56,1.4,1.4,0,0,0,1.35-.32l1.13-.75a27.87,27.87,0,0,0,5.12-5.12l.75-1.13a1.4,1.4,0,0,0,.32-1.35,4.73,4.73,0,0,0-.93-1.82,17.32,17.32,0,0,1-1.07-1.69c-.19-.33-.37-.68-.55-1l-.07-.23c-.72-2.47-1.46-4.93-2-7.45a69.86,69.86,0,0,1-1.06-7.21c-.09-.9-.18-1.81-.24-2.71,0-.5-.05-1-.07-1.51,0-.21,0-.43,0-.64s0-.23,0-.34a2.18,2.18,0,0,0-.19-1.12,1.46,1.46,0,0,0-.39-.06,1.41,1.41,0,0,0-.93.37"/><path class="cls-4" d="M81.08,209a5.74,5.74,0,0,0-1.71,1,23.38,23.38,0,0,0-2.43,2.13,22.11,22.11,0,0,0-2.06,2.34,6.33,6.33,0,0,0-1,1.8,2.65,2.65,0,0,0,0,.58c0,.32-.06.65-.11,1-.14,1.09-.35,2.18-.56,3.26s-.38,1.86-.58,2.79a7.71,7.71,0,0,0-1.52,2.36,5.18,5.18,0,0,0-.22.88,2.17,2.17,0,0,0,0,.29,2.74,2.74,0,0,0-.74,2.15,2.07,2.07,0,0,0,.55.95,7.89,7.89,0,0,0,.84.74,10,10,0,0,0,1.65,1,11.73,11.73,0,0,0,1.83.76,7,7,0,0,0,1.26.36,1.72,1.72,0,0,0,.74,0l.15,0a11.51,11.51,0,0,1,.33,1.3,1.49,1.49,0,0,1-.05.39c-.2.73.17.68.71.73a2.83,2.83,0,0,0,1.44-.16,6.49,6.49,0,0,0,1.92-1.09,24.24,24.24,0,0,0,3.93-3.69,15.65,15.65,0,0,0,1.76-2.37l.37-.83q.16-.69-.53-.53h-.07a1.82,1.82,0,0,1-.57-.18c0-.23,0-.47-.07-.7a2,2,0,0,0-.19-.6c-.13-.29-.27-.59-.39-.89-.24-.57-.48-1.13-.69-1.71q-.1-.28-.2-.57c0-.17,0-.34,0-.52,0-1.34-.17-2.69-.26-4s-.1-2.41-.08-3.61c0-.63,0-1.26,0-1.89a10.93,10.93,0,0,0-.12-1.61.87.87,0,0,0-.4-.64,1.56,1.56,0,0,0-1.45.17,4.1,4.1,0,0,0-.55-1,.78.78,0,0,0-.61-.29.66.66,0,0,0-.27.05"/><path class="cls-5" d="M158.55.8a107,107,0,0,0-22.07,3.89,98.35,98.35,0,0,0-20.59,8c-8.21,4.35-15.25,10.38-22,16.65a71.64,71.64,0,0,0-8.21,9.09,131,131,0,0,0-9.52,13.81,129.79,129.79,0,0,0-7.9,16.23,176.64,176.64,0,0,0-6.15,18.27C60.44,92.63,59.4,98.66,58,104.6c-1.53,6.52-3,13-4.8,19.51a42.34,42.34,0,0,1-6.59,14.39c-2.94,4-3.18,4-.3,7.29A64.73,64.73,0,0,0,55,153.4a4.82,4.82,0,0,1,2.25,4.2,188.24,188.24,0,0,0,1.19,24.68A71.66,71.66,0,0,0,62,199.46c1.65,4.49,3.56,9,8.43,10.8,2,.76,2.05,1.72,1.44,3.25-1.89,4.71-4.06,9.26-7.42,13.16-1.77,2.06-1.63,4.12.35,5.23,5.56,3.13,11.37,5.6,17.82,6.2,2.22.21,3.35,1.4,3.93,3.85.82,3.52,1.61,7.07,2.68,10.52.54,1.74-.13,2.34-1.53,2.73-2,.57-4.07,1.11-6.11,1.67-4.92,1.35-9.81,2.83-14.78,4-8.54,2-17.13,3.82-25.69,5.76-8.14,1.85-16.26,3.82-24.4,5.65-5,1.12-10,2-14.94,3.13A4.08,4.08,0,0,0,0,276.76c-.08.09.56.91.93,1.34a11.55,11.55,0,0,1,1.37,1.41,54,54,0,0,0,11,13.15,7.72,7.72,0,0,1,1.37,1.62,66.17,66.17,0,0,0,10.84,13.25c6.12,5.64,12,11.58,18.15,17.15,5,4.54,10.33,8.81,15.64,13a168.38,168.38,0,0,0,23.82,15.54c4.11,2.27,8.27,4.49,12.2,7,1.86,1.2,2.9.61,3.84-.77a17.29,17.29,0,0,0,2.75-5c1.51-5.84,2.81-11.74,4-17.65.9-4.49,1.51-9,2.22-13.56.61-3.85,1.15-7.7,1.78-11.55a4.3,4.3,0,0,1,.78-1.3c.32.54.9,1.08.91,1.63a60.38,60.38,0,0,0,2.15,14.24c2.91,11.14,6.63,21.9,12.18,32,2,3.71,5.42,3.13,7.24.48s3.25-5.39,5-8c4.27-6.36,8.62-12.66,12.94-19a1.91,1.91,0,0,1,1-.78l0-.1a.85.85,0,0,1,.2-.82l.23-.34.23-.34c.19-.25.39-.5.6-.74a3.18,3.18,0,0,1-.19-1.18,5,5,0,0,1,.93-1.71l0-.05a23.2,23.2,0,0,1,2.09-2.38,22.28,22.28,0,0,1,2.33-2l.48-.32.48-.32.2-.12a1.57,1.57,0,0,1,.77-.29c.42,0,.86,0,1.41.07.2-.17.4-.33.59-.47a3.06,3.06,0,0,1,.9-.51h.86c.9,0,1.72,0,2.48,0,1,0,2,.13,2.94.22l.86.08c.78.07,1.58.13,2.35.18l1.82.14c1.23.1,2.45.31,3.64.51l.43.07c1.28.22,2.58.4,3.87.54.53.05,1.07.08,1.59.11l1.23.08c.51,0,1.12.1,1.74.2a6.07,6.07,0,0,1,.8.17l.06,0a1.08,1.08,0,0,1,.48.23s0,0,0,0v0a2.1,2.1,0,0,1,.19.36H189a2.6,2.6,0,0,1-.17-.34c-.36-.87-.61-1.79-.91-2.69a20.34,20.34,0,0,0,2.37-.61c4.47-1.73,9-3.36,13.36-5.28a68.94,68.94,0,0,0,19.06-12.16,5.08,5.08,0,0,1,.87-.53,3.41,3.41,0,0,1,.28,1.14c-.25,2.07-.53,4.15-.86,6.21-.4,2.45-.87,4.9-1.31,7.34a102.61,102.61,0,0,1-2.37,11.07c-1.86,5.93-4,11.77-6.17,17.59a21.45,21.45,0,0,1-2.94,5.12c-1.2,1.62-2.32.43-3.11-.61-2-2.65-4-5.32-5.89-8.07-3.85-5.65-7.61-11.36-11.4-17,0,.12,0,.23,0,.34a5.12,5.12,0,0,1,0,1.21c.07,0,.09.14.06.3l-.25.6a16.59,16.59,0,0,1-1.27,3.12,9.92,9.92,0,0,1-.53.91l-.49,1c-.36.72-.75,1.44-1.13,2.15l.61-.78c1-1.28,1.91-1.21,2.87.22,5.11,7.68,10.17,15.39,15.36,23,3,4.36,5.27,4.11,8,1.16a33.94,33.94,0,0,0,6.31-9.83,233.78,233.78,0,0,0,8.12-22.06c1.62-5.23,2.38-10.74,3.34-16.16a36.46,36.46,0,0,0,.07-5.55,3.82,3.82,0,0,1,.36-1.07c.31.25.77.44.92.77a13.87,13.87,0,0,1,.86,2.49c1.78,7.3,3.65,14.59,5.26,21.93,1,4.33,1.38,8.77,2.27,13.11,1,5.1,2.14,10.19,3.53,15.2,1,3.64,2.52,7.14,3.86,10.67a1.13,1.13,0,0,0,1,.37c3.64-1.08,7.29-2,10.53-4.25a78.44,78.44,0,0,1,8.25-4.4c2.1-1.09,4.22-2.16,6.32-3.27a16.45,16.45,0,0,0,2.27-1.39c1.84-1.4,3.53-3,5.48-4.26,3.35-2.07,7-3.67,10.27-5.85,6.55-4.39,12.93-9,19.38-13.6,3.51-2.48,7.05-4.9,10.49-7.47,1.65-1.23,3.09-2.74,4.62-4.14.43-.39.83-.81,1.22-1.25q2.47-2.72,4.92-5.46c2.9-3.23,5.87-6.4,8.66-9.72,2.06-2.45,3.73-5.24,5.84-7.64,2.39-2.72,2.51-2.59-.39-4.64-1.59-1.12-3-2.71-4.75-3.35-3.95-1.44-8-2.53-12.12-3.57-7.41-1.9-14.87-3.63-22.29-5.48-7.88-2-15.74-4-23.63-5.93-5.27-1.27-10.58-2.34-15.86-3.53q-6.61-1.49-13.2-3.07c-2.45-.59-4.91-1.18-7.32-1.93-.54-.17-1.34-1.12-1.23-1.45,1.28-3.77,2.66-7.52,4.17-11.21.28-.69,1.43-1.69,1.84-1.55,3.48,1.18,7,.84,10.45.32,3.28-.49,6.57-1,9.79-1.78,2.24-.53,2.61-2,1.36-4a13.55,13.55,0,0,1-1.46-2.9c-1.08-3.21-2.17-6.42-3.07-9.69-1.13-4.15-2.14-8.34-3.05-12.54-.26-1.2-.31-2.54,1.23-3.32a22.35,22.35,0,0,0,10.09-10.9c4-8.46,5.52-17.55,6.2-26.82a10.86,10.86,0,0,1,.73-3.85c.23-.47,1.68-.31,2.55-.53,6.67-1.69,13.08-4,17.85-9.24,1.28-1.41,3.31-2.93,2.46-5.2-.54-1.43-2-2.53-3-3.77-6-7.31-9.3-15.85-10.94-25.07-.51-2.89.56-3.67,3.51-3.24A80.06,80.06,0,0,0,308.87,127a81.06,81.06,0,0,0,13.26-1.29A60.4,60.4,0,0,0,334,122.66a41.06,41.06,0,0,0,15.43-10.77c.77-1,1.44-1.92,2.08-2.84a39.44,39.44,0,0,0,6.59-16.13c.47-2.73-.7-4.5-3.1-4.85a40.41,40.41,0,0,1-5.4-1.24,115.76,115.76,0,0,1-26.16-11.47c-7.9-4.62-15.82-9.2-23.51-14.15-8.81-5.67-17.44-11.64-26-17.66-6.32-4.44-12.37-9.27-18.67-13.74-6.51-4.62-12.75-9.6-19.84-13.46A131.79,131.79,0,0,0,214,7a111.2,111.2,0,0,0-23.25-5.25C184.18,1,177.55.29,170.9,0l-1.25,0c-3.69,0-7.4.6-11.1.8M79,102.69c-2.7-.76-5.48-1.25-8.22-1.88-3-.7-4.05-2.07-3-5C70.21,88.91,72.6,82,75.56,75.34A178.84,178.84,0,0,1,84.9,57.51a91.22,91.22,0,0,1,8.31-11.68,141.6,141.6,0,0,1,12.27-13.54c6.31-5.91,13.28-10.94,21.58-14,7-2.57,14-4.92,21.39-6.07,5-.77,9.9-1.7,14.89-2.14a101.41,101.41,0,0,1,15.16-.42,107.22,107.22,0,0,1,25.86,4.75,130.3,130.3,0,0,1,25.14,10.76c7.37,4.21,14.61,8.73,21.53,13.65,8.83,6.26,17.21,13.14,25.91,19.59,4.93,3.65,10.13,6.95,15.19,10.43a233.6,233.6,0,0,0,26.48,15.49c1.8.92,3.73,1.58,5.55,2.47,1.44.7,1.54,2.05.12,2.83-3.74,2.05-7.57,3.94-11.36,5.93a15.53,15.53,0,0,0-2.77,1.74c-.39.33-.45,1.06-.66,1.61.61.22,1.29.72,1.82.61q4.39-1,8.72-2.23c3.85-1.11,7.66-2.33,11.49-3.49a14.67,14.67,0,0,1,1.51-.3c-.16.64-.12,1.47-.52,1.9-1,1.09-2.23,2-3.34,3a16.9,16.9,0,0,0-1.85,1.87,13.29,13.29,0,0,0-1.06,1.82c.79.12,1.58.26,2.38.33.24,0,.49-.18.74-.28,4.07-1.46,7.69-3,11.35-4.36,1-.39,2.42-1.63,3.16-.2.31.59-1,2-1.66,3.09-.11.18-.36.29-.45.47-.42.84-.8,1.7-1.19,2.55a15,15,0,0,0,2.8-.29c1-.28,1.82-.91,2.77-1.25a2.82,2.82,0,0,1,1.1-.08l.51,0c-.06.64.11,1.48-.23,1.87a63.18,63.18,0,0,1-6.48,6.88c-4.79,4-10.52,6.21-16.58,7.58a73,73,0,0,1-16,1.72,103.79,103.79,0,0,1-33.27-5.51c-3.6-1.19-7.16-2.47-10.72-3.76-1.52-.55-1.58-1.51-.29-2.36,3.09-2,6.26-4,9.36-6,2-1.32,4-2.69,5.94-4.17.47-.36.52-1.26.77-1.92a5.24,5.24,0,0,0-2.08-.15c-5.75,2.18-11.42,4.54-17.2,6.65-4.45,1.63-9,3-13.54,4.34a3.87,3.87,0,0,1-2.82-1c-1.15-.9-2.18-1.29-3.17-.08-1.73,2.13-4.08,1.8-6.42,2.07-2.87.33-4.08-1.48-5.47-3.27-1.88-2.42-2.75-2.39-4,.44-.92,2.08-2.14,3-4.52,2.8-4.31-.34-8.65-.24-13-.52-4.8-.31-9.61-.64-14.36-1.33-7.89-1.15-15.73-2.59-23.59-3.9a36,36,0,0,0-5.34-.83c-2.85,0-4.48-1.66-5.82-3.82-.24-.39-.3-.9-.51-1.32-1.73-3.43-3-3.77-5.45-.93-3.22,3.76-5.68,2.08-9.09-.94-2.7-2.38-5.21-5-7.91-7.35a2.71,2.71,0,0,0-2.39-.49c-.55.27-.91,1.43-.93,2.21-.1,3.58,0,3.41-3.45,2.11a151.83,151.83,0,0,1-22.17-11c-4.72-2.73-9-6.19-13.44-9.4-1.71-1.24-3.27-2.69-4.94-4-.31-.25-1-.49-1.16-.36a1.57,1.57,0,0,0-.46,1.28,8.19,8.19,0,0,0,1.38,2.7q6.12,6.93,12.4,13.73a27.5,27.5,0,0,0,3.06,2.65,5.87,5.87,0,0,1,1.95,6c-.61,3.59-1.43,7.15-2.16,10.72a2.51,2.51,0,0,1-2.67,2.2q-1.33.07-2.65.07a71.19,71.19,0,0,1-19.37-3m5,54.78c7.59-4.29,11.82-11.26,14.84-19.15.75-1.95,1.73-3.81,2.61-5.71,3.36-11.33,6.72-22.21,10.09-33.1.58-1.88,1.1-3.78,1.78-5.62.37-1,.84-1.76,2.37-1.07,3.93,1.79,8,3.29,12,4.95.39.16.65.62,1,.93-.36.12-.74.38-1.08.34-2.22-.26-4.42-.7-6.64-.84a3.38,3.38,0,0,0-2.48.94c-.31.36.09,1.73.58,2.28a66.55,66.55,0,0,0,5.72,5.74c1.6,1.39,1.52,3,1,4.65-.7,2.26-1.62,4.45-2.25,6.73a2.63,2.63,0,0,0,.53,2.28,2.75,2.75,0,0,0,2.43.31c4-2,8.05-3.93,11.9-6.19,3.25-1.91,3.61-2,5.76,1.13.71,1,1.44,2,2.17,3,1.6,2.24,3.2,2.29,5.76.19s2.67-2,4.22.86c1,1.85,2,3.71,2.8,5.64.73,1.74,2,1.54,3.3,1.14,4.11-1.25,4.1-1.27,6.19,2.41.87,1.54,1.76,3.07,2.63,4.61,1,1.82,2,2.08,3.32.54,1.78-2.14,3.35-4.45,5-6.68s3.53-4.67,5.24-7a2,2,0,0,0-1.52-3.28c-1.91-.2-3.82-.36-5.74-.44a3.45,3.45,0,0,1-3.68-3.19c-.16-1.18.34-1.87,1.58-1.64,3.65.69,7.27,1.58,10.94,2.13,2.54.38,5.14.32,7.71.49,4.41.28,8.82.54,13.23.9a2,2,0,0,1,2.11,2.28,38.15,38.15,0,0,0,.41,5.3c.1,1-.19,1.31-1.17,1.18a32.4,32.4,0,0,0-4-.43c-2.32,0-3.25,1.57-2.07,3.5q2.92,4.82,5.9,9.62c1,1.69,2.47,1.86,4,.58,1.42-1.15,2.88-2.25,4.28-3.42,1.73-1.43,3.48-1.29,5.39-.35,1.69.83,3.47,1.5,5.23,2.18,1.6.62,3-.6,3.41-3a13.42,13.42,0,0,0,0-2c0-2,.82-2.48,2.72-1.62a6,6,0,0,1,.9.47c3.77,2.58,3.82,2.62,7-.64,1.33-1.39,2.31-2.11,4-.33a37.16,37.16,0,0,0,5.46,4.22c1.91,1.36,3.1.83,3.65-1.36a25.17,25.17,0,0,1,1.21-3.11c.17,1.11.37,2.22.52,3.34.45,3.47.61,7,1.39,10.4a114.6,114.6,0,0,0,3.94,13.71A25.38,25.38,0,0,0,272,169.68a26.65,26.65,0,0,0,4.53,1.76c1.39.54,2.34,1.25,2.24,3.08-.51,9.53-2.46,18.69-6.89,27.2-1.8,3.44-4,6.6-8,7.88-3.4,1.09-5.29.32-7-2.74a10,10,0,0,0-1.46-1.64c-.42.75-1.17,1.48-1.2,2.25-.26,7.4-2.17,14.45-4.6,21.36-3.55,10.08-7,20.19-10.92,30.12-2.08,5.27-5.25,10.1-7.62,15.26a58.91,58.91,0,0,1-12.76,17.51C213,296.83,207.46,301.59,201,305c-6,3.13-12.3,5.7-19.25,5.92-5.64.18-11.32.78-16.91.32a67.32,67.32,0,0,1-18.69-4,59.87,59.87,0,0,1-31-25.07C110.61,275,106,268,102,260.62a127.2,127.2,0,0,1-12.22-32.41c-1.27-5.42-1.62-11.06-2.26-16.62-.31-2.7-.32-5.43-.47-8.15-.07-1.29-.68-1.66-1.81-1-.78.44-1.48,1-2.25,1.46-4.06,2.41-7.5,1.44-10.65-1.3a19.78,19.78,0,0,1-5.45-8.71A55,55,0,0,1,63.3,173c.11-2.41-.36-4.85-.37-7.27a62.17,62.17,0,0,1,.45-6.61,1.31,1.31,0,0,1,1-.77c3,.29,6,.78,9,1,.77.06,1.54.09,2.31.09A16.62,16.62,0,0,0,84,157.47m53.51-57.19c-.11-1.68-.38-3.35-.52-5a6.55,6.55,0,0,1,.2-1.44,4.91,4.91,0,0,1,1.48.63c1.23,1.12,2.38,2.34,3.55,3.51,1.44,1.44,2.85,2.9,4.32,4.3,1.7,1.63,3.16,1.43,5.58-.54,1-.82,2.16-1.48,3.24-2.21l1.93,3c.78,1.21,1.52,2.44,2.33,3.63,2.22,3.3,3,3.69,6.58,2.46,1.81-.61,2.4-.09,2.82,1.55.64,2.5,1.46,4.95,2.16,7.42.53,1.86,1.38,3.24,3.65,3a18,18,0,0,1,2.85,0c1.9.11,2.41,1,1.32,2.47-1.22,1.64-2.56,3.18-3.85,4.76-1.24,2-2.23,2-3.09,0a24.3,24.3,0,0,0-1.82-3.19c-2-3.07-2.53-3.48-5.71-2-1.54.71-2.64.89-3.51-1-1.06-2.34-2.46-4.53-3.67-6.81-1-2-2.46-2.32-4.18-1-4.15,3.18-4.15,3.17-7-1.21-.26-.41-.59-.77-.87-1.17-1.35-2-2.23-3-5.1-1.4q-4.81,2.67-9.66,5.25a6.87,6.87,0,0,1-1.75.4,5.76,5.76,0,0,1-.12-1.9c.31-1.1,1-2.09,1.24-3.2.54-2.39-.57-4.08-2.45-5.53a11.13,11.13,0,0,1-1.9-2.69l3,.21c2.45.15,4.89.36,7.34.42h.1c1.89,0,1.58-1.52,1.5-2.71M73.86,117c-2.23-.45-4.49-.78-6.68-1.35-1.74-.45-2.53-1.57-1.88-3.52a11.19,11.19,0,0,0,.62-3.89c-.08-2,1.15-1.94,2.39-1.75,3.42.53,6.81,1.21,10.22,1.77,3.63.6,7.27,1.14,10.91,1.71,3,.15,5.58.33,8.15.42a4.67,4.67,0,0,0,1.09-.14,4.29,4.29,0,0,1,1.17-.14,3.16,3.16,0,0,1,1.76.73,1.42,1.42,0,0,1-.15,1.36,15.9,15.9,0,0,1-4.08,2.1c-3.52.92-7.11,1.56-10.66,2.33a35.82,35.82,0,0,1-7.58.88,26.45,26.45,0,0,1-5.28-.52m150.44,2c.87-2.71,1.69-5.43,2.65-8.1.46-1.28,1.52-1.3,2.36-.41,1,1.12,1.88,2.42,2.82,3.64.56.72,1.14,1.42,1.7,2.15.82,1.06,1.55,1,2.45,0,1.27-1.4,2.61-2.73,4-4,1.63-1.51,2.67-1.25,3.32.82,1.65,5.26,2,6.74,7.18,1.83,1.34-1.27,2.73-2.49,4.14-3.68a3.18,3.18,0,0,1,1.17-.34,8.26,8.26,0,0,1-.16,1c-.29,1-.61,2.08-.92,3.12-1,3.16-.41,4.45,2.33,5.38a1.17,1.17,0,0,0,.38,0,.79.79,0,0,1,.44.08c.59.41,1.12.91,1.68,1.37a7.45,7.45,0,0,1-1.6,1.22c-2.5,1-5.25,1.47-6.08,4.77-.35,1.38-1.6.94-2.51.19-1.74-1.44-3.41-3-5.26-4.27a2.66,2.66,0,0,0-2.46,0c-1.06.78-1.69,2.14-2.75,2.93a3.15,3.15,0,0,1-2.59.42c-1.88-.73-3.61-1.85-5.44-2.74s-3.07-.24-3.32,1.72c-.15,1.18-.34,2.36-.43,3.54-.13,1.73-1.1,2.1-2.54,1.6a13,13,0,0,1-2.57-1.19c-3.17-2-5.51-.37-7.79,1.71a10.24,10.24,0,0,1-2,1.53c-1,.51-1.92.65-2.53-.66-.48-1-1.13-2-1.68-3a12.39,12.39,0,0,1-.5-1.21l1.32-.51a.51.51,0,0,1,.22,0c1.39.16,3.28,1.41,4-.36s.41-3.77.32-5.67c-.07-1.66-.51-3.29-.7-4.95,0-.35.21-1,.46-1.06a1.62,1.62,0,0,1,1.18.36c1.8,1.31,3.61,2.63,5.35,4a4,4,0,0,0,2.27,1.09c.92,0,1.59-.8,2.12-2.44m60.61,11.64a65.84,65.84,0,0,1-18.59-5.25c-1.38-.6-1.71-1.18-.47-2.35,1.43-1.35,1.17-1.87-.61-3.06-.89-.6-2.86-.71-1.91-2.71,3.51.8,6.8,1.84,10.1,2.85,3.88,1.18,7.78,2.33,11.66,3.52,2,.61,3.4,1.53,3.29,4s-.06,3.15-1.46,3.15c-.48,0-1.12-.07-2-.18M81.49,121.93c3.24-.49,6.49-.85,9.72-1.4,1.95-.33,3.84-1,5.78-1.36a7.13,7.13,0,0,1,1.58-.08h.73c-.27.69-.35,1.68-.86,2a59.16,59.16,0,0,1-7.71,4.64c-3.67,1.7-7.56,2.89-11.28,4.49-4.8,2.06-9.83,1.81-14.83,1.69-2.72-.06-4.51-1.8-3.9-3.5s1.44-3.35,2.17-5c1.09-3.56,3.57-1.75,5-1.39a23.78,23.78,0,0,0,5.76.66,51.85,51.85,0,0,0,7.81-.74m-24.4,25.94c-.52-.31-1.1-.52-1.65-.78-.68-.53-1.2-.78-1.58-1.16-3.36-3.39-2.9-2.23-.31-5.42,1.94-2.39,4.13-2.78,6.94-2.93a108.07,108.07,0,0,0,16.14-1.78c6.44-1.35,12.78-3.32,18.18-7.42.32-.24.88-.17,1.33-.25a3.29,3.29,0,0,1-.13,1.18c-3.12,5.84-5.67,12.08-10.85,16.54-3.53,3-7.25,5.55-12.25,5.94q-1,.08-2,.08a26.34,26.34,0,0,1-13.77-4m232.46-2.72c-6.41-.24-12.14-2.59-17.57-5.72a79.06,79.06,0,0,1-6.58-4.75c-2.22-1.61-1.53-4-1.56-6.12a1.58,1.58,0,0,1,1.19-.33c1.09.57,2.09,1.31,3.13,2a57.32,57.32,0,0,0,20,7.87c1.71.34,2.5,1.17,2.42,2.88a6,6,0,0,1,.85,1.92c.18,1.3,0,2.28-1.65,2.28h-.19m-5.62,20.53a18.08,18.08,0,0,1-17.07-12.28c-.78-2.23-1.47-4.5-2.2-6.75-.29-2.51-.6-4.58-.86-6.65a6.87,6.87,0,0,1,.09-1.35,4.09,4.09,0,0,1,1.5.34c1.36,1,2.65,2.08,4,3.13a41.07,41.07,0,0,0,14.78,7.66,24.5,24.5,0,0,0,7.21.53,4.37,4.37,0,0,1,4.3,2.29,45.87,45.87,0,0,0,3.92,6c1.24,1.46.35,2.22-.58,2.74a34.27,34.27,0,0,1-7.12,3.38,28.43,28.43,0,0,1-7.71.92h-.23M80.31,232c-2.56-.85-5.08-1.82-7.62-2.75-1.83-.67-1.71-1.9-.93-3.3s1.55-2.72,2.32-4.08c1.1-3.22,1.89-6.24,2.91-9.19A3.13,3.13,0,0,1,78.92,211c.37-.1,1.22.9,1.58,1.55a4.48,4.48,0,0,1,.37,2A59.78,59.78,0,0,0,83,229.5a3.42,3.42,0,0,1-.39,2.58c-.1.14-.37.19-.7.19a5.56,5.56,0,0,1-1.56-.26m175.1,10.91c-2.45-.26-3.23-1.37-2.58-3.72,1.73-6.29,3.51-12.57,5.23-18.86a21.73,21.73,0,0,1,.5-2.64,9.3,9.3,0,0,1,1.51-2c.51.66,1.33,1.26,1.46,2,.7,3.83,1,7.72,1.86,11.52a77.76,77.76,0,0,0,3.1,10.76c.68,1.83-.17,2.46-1.38,2.88a18.25,18.25,0,0,1-3.74.49c-2.28-.15-4.12-.25-6-.45M127.56,348.58a55,55,0,0,1-8.06-19.88A144.68,144.68,0,0,1,117,312.48c-.25-3.57.6-7.25,1.26-10.83.24-1.32,1.69-1.12,2.64-.5,4.08,2.69,8,5.75,12.21,8.11,5.19,2.89,10.68,5.22,16.05,7.78.73.35,1.49.63,2.23,1,1.48.7,1.34,1.7.5,2.83-4.07,5.47-8.1,11-12.22,16.41-2.79,3.69-5.69,7.29-8.54,10.93-.8,1.26-1.37,1.87-1.92,1.87s-1-.5-1.62-1.48"/><path class="cls-5" d="M173.75,12.21c-6.38.34-12.87,0-19.13,1a156.61,156.61,0,0,0-21.32,5.64,54.23,54.23,0,0,0-12.94,5.72,108.75,108.75,0,0,0-16.09,12.44c-5.12,4.89-9.5,10.58-14,16.08a67.36,67.36,0,0,0-4.68,7.26,2.47,2.47,0,0,0-.15.89,4.36,4.36,0,0,0,.62-.52q2-2.44,4-4.91c3.78-4.65,7.37-9.46,11.38-13.9a63.39,63.39,0,0,1,9.24-8.36,109.52,109.52,0,0,1,14.13-9.27,98.29,98.29,0,0,1,18.74-7.17,103.39,103.39,0,0,1,24.4-4,130.86,130.86,0,0,1,16.73.82A77.59,77.59,0,0,1,202,17.85a84,84,0,0,1,24.55,13.2c7.1,5.35,14.33,10.52,21.57,15.68q14,10,28.18,19.86c4.8,3.33,9.75,6.45,14.63,9.67,1.65,1.08,1.9,2.23.83,3.85a26.1,26.1,0,0,1-11.09,9.14,222,222,0,0,1-20.86,7.84c-6.19,2.11-12.48,4-19.11,4.18-2.57.08-5.14.26-7.71.44a6.93,6.93,0,0,0-2,.46c-.15.06-.2.91-.14.93a5.35,5.35,0,0,0,1.62.33c6,.09,11.85-1.14,17.74-2.11a83.65,83.65,0,0,0,16.63-4.89c3.84-1.49,7.68-3,11.56-4.38a34.18,34.18,0,0,0,13.71-9.25c3.12-3.37,2.68-5.81-1.36-8.35-2.68-1.69-5.29-3.49-7.91-5.26-5.43-3.66-10.89-7.28-16.26-11s-10.48-7.53-15.94-11.3a6.56,6.56,0,0,1-1-.77c-8-5.89-16.09-11.69-24-17.68a71.48,71.48,0,0,0-19.86-10.84c-9.3-3.2-18.77-5.46-28.62-5.46q-1.68,0-3.37.09"/><path class="cls-5" d="M126.11,44.5a3.43,3.43,0,0,0-.67,1.92,3.42,3.42,0,0,0,.73,1.64A42.56,42.56,0,0,0,137,59.29c4.21,3,8.51,5.9,12.88,9,2.27,1.25,4.39,2.47,6.6,3.5,4,1.85,7.91,3.87,12,5.32,7.52,2.65,15.07,5.28,23.08,6.22,3.79.45,7.55,1.17,11.34,1.7a4.82,4.82,0,0,0,1.67-.4c-.43-.59-.74-1.45-1.32-1.71a45.24,45.24,0,0,0-5.17-1.8c-10.64-3.23-21.31-6.4-31.94-9.67a59.46,59.46,0,0,1-16.05-7.8c-3.89-2.65-7.77-5.36-11.38-8.37-3-2.46-5.49-5.42-8.24-8.12a24.52,24.52,0,0,0-2.93-2.46,2.05,2.05,0,0,0-1-.27.52.52,0,0,0-.39.1"/><path class="cls-5" d="M109.42,57.22a1.78,1.78,0,0,0-.39,1.3,4,4,0,0,0,1,1.53c2.49,2.39,4.93,4.84,7.54,7.09a108.07,108.07,0,0,0,20.25,13.5,75.31,75.31,0,0,0,20.56,7.45c3.67.72,7.39,1.23,11.1,1.74.53.07,1.13-.4,1.69-.61-.4-.4-.73-1-1.22-1.18-1.65-.61-3.36-1.06-5-1.58-4.86-1.49-9.71-3-14.79-4.48-3.42-1.44-6.65-2.82-9.81-4.35-8.15-3.95-15.08-9.68-22.22-15.13-2.45-1.87-5.13-3.44-7.73-5.12a1.71,1.71,0,0,0-.78-.2c-.11,0-.19,0-.22.06"/><path class="cls-5" d="M120.42,84.75a5.77,5.77,0,0,0,.62.3c2.91,1,5.83,2,8.85,2.94.11-.33.16-.72.1-.74q-4.6-1.36-9.21-2.65h0c-.1,0-.22.1-.33.15"/><path class="cls-5" d="M143.64,90.91a6,6,0,0,0,.84.89,20,20,0,0,0,2.63,1.56c1.54.15,2.87.34,4.19.4.34,0,.7-.39,1-.6a4,4,0,0,0-1-.66c-2.15-.62-4.32-1.21-6.49-1.75l-.22,0a7.66,7.66,0,0,0-1,.19"/><path class="cls-5" d="M160.27,95.37c.41.4.76,1,1.25,1.17A44.37,44.37,0,0,0,167,98.16c5.86,1.23,11.81,2.1,17.6,3.6,6.15,1.6,12.43,2,18.67,2.46,5.81.45,11.69.11,17.54.08a7.5,7.5,0,0,0,2.22-.44,4.93,4.93,0,0,0,1.15-.77,4.32,4.32,0,0,0-1.32-.5c-2.72,0-5.45,0-8.18,0a137.92,137.92,0,0,1-20.62-.89c-3.78-.58-7.36-1.07-10.89-1.78-4.57-.92-9.1-2-13.64-3-2.47-.56-4.92-1.21-7.39-1.72a1.57,1.57,0,0,0-.32,0,12.28,12.28,0,0,0-1.52.25"/><path class="cls-5" d="M100.75,102.23a1.6,1.6,0,0,0,.06.73s.28.08.4,0c.67-.22,1-2.88.39-3.39a25.07,25.07,0,0,0-.85,2.62"/><path class="cls-5" d="M184,126.75c.64,3.81,1.49,7.6,2,11.43a85.51,85.51,0,0,1,1,12.28,108.16,108.16,0,0,1-1.31,14.78,95.57,95.57,0,0,1-3.05,12.53,72.43,72.43,0,0,1-3,6.87,4,4,0,0,0,0,1.56c.35-.26.85-.44,1-.79a40.21,40.21,0,0,0,2.62-5.27c1.22-3.37,2.2-6.83,3.4-10.36.33-2.14.59-4.16.76-6.19.19-2.42.33-4.84.44-7.27a107.27,107.27,0,0,0,.37-11.21c-.27-4.6-1-9.17-1.71-13.73a35,35,0,0,0-1.31-4.93c-.08-.27-.52-.43-.79-.64-.17.31-.52.66-.47.94"/><path class="cls-5" d="M79.76,137.72a9,9,0,0,0-2.28,1.86c-2.69,3.62-6.48,5.87-10.11,8.34a5,5,0,0,0-1,1.3h.47a2.07,2.07,0,0,0,1-.1c4.94-2.38,8.84-6,12.48-10.26a13.71,13.71,0,0,0,.62-1.35,3.08,3.08,0,0,0-1.2.21"/><path class="cls-5" d="M67.76,163.1a103.71,103.71,0,0,0-1.7,12c-.16,3.51.49,7,.79,10.57a2.57,2.57,0,0,0,.26.66,2.57,2.57,0,0,0,.3-.75c.12-2,.21-4,.31-6.22A66.21,66.21,0,0,1,69,163.24a4.15,4.15,0,0,0-.25-1.46c-.35.44-.93.84-1,1.32"/><path class="cls-5" d="M77,164.6c-.1.35.13.79.24,1.19.86,3,.12,5.66-2,7.11-2.58,1.79-3,4-2.4,7,.91,4.58,3.89,7.71,6.72,11.24a12.07,12.07,0,0,0,1.27,2.31,1,1,0,0,0,.89-.06c.86-1.89-1.13-7.53-3.08-8.83-2.11-1.41-2.38-3.57-2.11-5.79a3.87,3.87,0,0,1,3.15-3.49,2.46,2.46,0,0,0,1.56-1.6c.37-3.47-.85-6.67-2.16-9.8-.16-.39-.85-.56-1.29-.83a7.16,7.16,0,0,0-.83,1.5"/><path class="cls-5" d="M267.54,172.78a3.73,3.73,0,0,0-1.1,1.71c-.54,2-.75,4.07-1.47,6a2.56,2.56,0,0,0,.68,3.19c3.32,3.31,2.62,7.78-1.54,10-2,1.07-3.69,4.31-3.37,6.43,0,.2.55.32,1,.37,2.55-2.11,4.95-4.18,7.45-6.11a8.48,8.48,0,0,0,1.94-11.54c-1.07-1.71-2.56-3.37-2.06-5.72a24,24,0,0,0,.43-3.54c0-.41-.22-1.2-.37-1.2H269a2.24,2.24,0,0,0-1.41.41"/><path class="cls-5" d="M172.58,197a75.21,75.21,0,0,0-3.48,8c-1.23,3.74-2.1,7.61-3.12,11.64,1,1.44,1.09.42,1.31-.29,1.17-3.75,2.26-7.53,3.54-11.25.88-2.55,2.05-5,3-7.51.16-.43-.09-1-.15-1.52-.38.32-.92.56-1.11,1"/><path class="cls-5" d="M71,197.7c.63.84,1.32,1.64,2.1,2.56.87.73,1.62,1.37,2.41,1.95a2.6,2.6,0,0,0,.89.24c-.09-.3-.08-.7-.28-.88-1.51-1.42-3.05-2.79-4.59-4.18a5.51,5.51,0,0,0-.61-.42c0,.25,0,.57.08.73"/><path class="cls-5" d="M74.34,226.28c-.1.18.18.56.29.85a6.84,6.84,0,0,0,1-1.32c0-.56-.09-.89-.13-1.23a14.72,14.72,0,0,0-1.15,1.69"/><path class="cls-5" d="M177.32,278.58a43.07,43.07,0,0,0,16.69,11,4.61,4.61,0,0,0,1.78-.13,6.2,6.2,0,0,0-1.25-1.31c-3.73-2.09-7.49-4.12-11.36-6.27-1.65-1.5-3.16-2.94-4.75-4.27a4.67,4.67,0,0,0-1.66-.51c.18.51.21,1.15.55,1.5"/><path class="cls-5" d="M191.87,364.18h.06l.16,0h0q.05-.21.1-.42l-.32.47"/><path d="M163.28,319.41a3.06,3.06,0,0,0-.9.51c-.2.14-.4.3-.59.47-.54,0-1-.06-1.41-.07a1.57,1.57,0,0,0-.77.29l-.2.12-.48.32-.48.32a22.28,22.28,0,0,0-2.33,2A23.2,23.2,0,0,0,154,325.8l0,.05a5,5,0,0,0-.93,1.71,3.18,3.18,0,0,0,.19,1.18c-.21.24-.41.49-.6.74l-.23.34-.23.34a.85.85,0,0,0-.2.82l.21.46a1.09,1.09,0,0,1,.29-.09,5.59,5.59,0,0,1,.86-.12h.14a2.74,2.74,0,0,1,1.35.4,2.62,2.62,0,0,1,.29.22,1.85,1.85,0,0,1,.37.28l.28.37.23.31a13.51,13.51,0,0,1,1,1.44c.23.41.48.82.72,1.22.54.88,1.05,1.77,1.61,2.63.31.47.65.92.94,1.41s.42.76.6,1.15l.22.46.08.18.11.27c.15.35.32.69.47,1a3.51,3.51,0,0,1,.19,1.13,4.06,4.06,0,0,1-.29,1.49,16.13,16.13,0,0,1-.65,1.54c-.28.69-.54,1.38-.83,2.07a13.17,13.17,0,0,1-.66,1.39c-.22.39-.46.77-.7,1.16-.66,1.06-1.35,2.09-2,3.13-.1.22-.2.44-.31.65s-.33.59-.5.89c-.31.54-.56,1.11-.81,1.68a11.3,11.3,0,0,0-.69,2.4,7.23,7.23,0,0,0-.05,1.41c.06.36.14.72.19,1.08a7,7,0,0,0,.25,1.18l.1.18a5.21,5.21,0,0,0,.54.5,6.4,6.4,0,0,0,.75.48,7,7,0,0,1,.83.49c.26.18.5.39.77.55a8,8,0,0,0,.78.39c.66.26,1.34.49,2,.71a18.4,18.4,0,0,0,2.44.62c.8.15,1.59.33,2.39.48s1.34.23,2,.32,1.5.11,2.24.17,1.58.13,2.37.22l1.58.16.34,0c.93-.14,1.87-.31,2.81-.36s1.69,0,2.52-.07,1.65-.35,2.49-.48a15.07,15.07,0,0,0,2.63-.56c.5-.17,1-.36,1.49-.52s.88-.24,1.31-.37c.84-.24,1.7-.49,2.51-.82a11.35,11.35,0,0,0,1.92-1.07l.31-.29.1-.37h0l-.16,0h-.06l.32-.47c.06-.29.12-.58.17-.87a13.13,13.13,0,0,0,0-1.43c0-.44,0-.88-.07-1.32a15.27,15.27,0,0,0-.9-3.16l-.23-.53c-.44-.83-.94-1.7-1.52-2.64-.37-.61-.77-1.22-1.16-1.82a18.75,18.75,0,0,1-1.41-1.69c-.27-.39-.51-.81-.77-1.21s-.5-.75-.73-1.14-.48-.82-.74-1.23-.47-.78-.73-1.15a7.64,7.64,0,0,1-.74-1.2q-.19-.42-.35-.85l0,0a1.14,1.14,0,0,0-.24-.2c-.22-.73-.44-1.54-.68-2.53l.3-.53c.19-.34.37-.68.55-1l.39-.73.49-.91,1.57-2.91.52-1c.47-.86,1-1.76,1.4-2.65l.49-1a9.92,9.92,0,0,0,.53-.91,16.59,16.59,0,0,0,1.27-3.12l.25-.6c0-.15,0-.25-.06-.3a5.12,5.12,0,0,0,0-1.21,4.49,4.49,0,0,0-.19-1,1.18,1.18,0,0,0-.14-.25c-.12-.2-.22-.2-.42-.21h-.41a2.1,2.1,0,0,0-.19-.36v0s0,0,0,0a1.08,1.08,0,0,0-.48-.23l-.06,0a6.07,6.07,0,0,0-.8-.17c-.62-.1-1.23-.16-1.74-.2l-1.23-.08c-.52,0-1.06-.06-1.59-.11-1.29-.14-2.59-.33-3.87-.54l-.43-.07c-1.19-.2-2.41-.41-3.64-.51l-1.82-.14c-.77-.05-1.57-.11-2.35-.18l-.86-.08c-1-.09-2-.19-2.94-.22-.77,0-1.58,0-2.48,0h-.86"/><path d="M167.91,368.58l-.26,0,.26,0"/><path class="cls-5" d="M159.42,1a106.92,106.92,0,0,0-22,3.88,98.26,98.26,0,0,0-20.57,8c-8.2,4.35-15.23,10.37-22,16.64a71.51,71.51,0,0,0-8.2,9.08,130.9,130.9,0,0,0-9.52,13.8,129.8,129.8,0,0,0-7.89,16.22A176.08,176.08,0,0,0,63,86.87c-1.65,5.86-2.69,11.89-4.08,17.82-1.53,6.51-3,13-4.79,19.49a42.27,42.27,0,0,1-6.59,14.38c-2.94,4-3.18,4-.3,7.28a64.83,64.83,0,0,0,8.65,7.62,4.81,4.81,0,0,1,2.25,4.2,188.26,188.26,0,0,0,1.19,24.66A71.65,71.65,0,0,0,63,199.47c1.65,4.48,3.56,8.94,8.43,10.79,2,.76,2.05,1.72,1.44,3.25-1.89,4.71-4.05,9.25-7.41,13.15-1.77,2.06-1.62,4.11.35,5.23,5.56,3.13,11.36,5.59,17.81,6.2,2.22.21,3.35,1.4,3.93,3.85.82,3.52,1.6,7.06,2.67,10.51.54,1.74-.13,2.33-1.53,2.73-2,.57-4.07,1.11-6.1,1.66-4.92,1.35-9.81,2.83-14.77,4-8.53,2-17.12,3.81-25.67,5.76-8.14,1.85-16.24,3.82-24.38,5.65-5,1.11-10,2-14.93,3.12A4.08,4.08,0,0,0,1,276.7c-.08.09.56.91.93,1.33a11.53,11.53,0,0,1,1.37,1.41,54,54,0,0,0,11,13.14,7.7,7.7,0,0,1,1.37,1.62,66.06,66.06,0,0,0,10.83,13.24c6.11,5.64,12,11.57,18.13,17.13,5,4.54,10.32,8.8,15.62,13A168,168,0,0,0,84,353.13c4.11,2.27,8.26,4.48,12.19,7,1.86,1.2,2.9.61,3.83-.77a17.3,17.3,0,0,0,2.75-5c1.51-5.83,2.8-11.73,4-17.63.9-4.48,1.51-9,2.22-13.55.61-3.84,1.15-7.7,1.78-11.54.08-.46.51-.87.78-1.3.32.54.9,1.08.91,1.63a60.34,60.34,0,0,0,2.15,14.23c2.91,11.13,6.62,21.89,12.17,32,2,3.7,5.42,3.12,7.23.48s3.25-5.39,5-8c4-5.94,8-11.83,12.08-17.72l.1-.26a1.81,1.81,0,0,1,.21-.55,1.94,1.94,0,0,1,.79-.74,1.74,1.74,0,0,1,2.68.21l.26.2a1.84,1.84,0,0,1,.36.28l.28.37.23.31a13.51,13.51,0,0,1,1,1.44l.11.19c1,1.22,2,2.42,3,3.57,1.65,1.77,2.41,3.77,1.79,5.92a4.7,4.7,0,0,1-.29,1.28,16.13,16.13,0,0,1-.65,1.54c-.28.69-.54,1.38-.83,2.07a13.17,13.17,0,0,1-.66,1.39c-.22.39-.46.77-.7,1.16-.42.67-.85,1.33-1.28,2l-.73,1.43c-.5,1-1.05,1.92-1.62,2.86l0,.06a11.24,11.24,0,0,0-.69,2.4,7.23,7.23,0,0,0-.05,1.41c.06.36.14.72.19,1.08a7,7,0,0,0,.25,1.18l.1.18a5.21,5.21,0,0,0,.54.5,6.4,6.4,0,0,0,.75.48,7,7,0,0,1,.83.49c.26.18.5.39.77.55a7.94,7.94,0,0,0,.78.39c.66.26,1.34.49,2,.71a18.4,18.4,0,0,0,2.44.62c.8.15,1.59.33,2.39.48s1.34.23,2,.32,1.5.11,2.24.17,1.58.13,2.37.22l1.58.16.34,0c.93-.14,1.87-.31,2.81-.36s1.68,0,2.52-.07,1.65-.35,2.49-.48a15.07,15.07,0,0,0,2.63-.56c.5-.17,1-.36,1.49-.52s.88-.24,1.31-.37c.84-.24,1.7-.49,2.51-.82a11.35,11.35,0,0,0,1.92-1.07l.31-.29a16.7,16.7,0,0,0,.36-1.67,13.39,13.39,0,0,0,0-1.43c0-.44,0-.88-.07-1.32a14.51,14.51,0,0,0-.42-1.76,11.73,11.73,0,0,0-.69-1.36c-2.56-4.3-5.42-8.42-8.15-12.63-1.08-1.67-1.09-4.75-.05-6.08l4.65-6c1-1.28,1.91-1.21,2.86.22,5.11,7.67,10.16,15.38,15.35,23,3,4.36,5.26,4.11,8,1.16a33.9,33.9,0,0,0,6.31-9.82,233.77,233.77,0,0,0,8.11-22c1.61-5.23,2.38-10.73,3.34-16.14a36.53,36.53,0,0,0,.07-5.54,3.82,3.82,0,0,1,.36-1.07c.31.25.76.44.91.77a13.88,13.88,0,0,1,.86,2.49c1.78,7.3,3.64,14.58,5.26,21.92,1,4.32,1.38,8.76,2.26,13.1,1,5.09,2.14,10.18,3.53,15.19,1,3.63,2.52,7.13,3.86,10.66a1.13,1.13,0,0,0,1,.37c3.64-1.08,7.28-2,10.52-4.25a78.21,78.21,0,0,1,8.24-4.4c2.1-1.09,4.22-2.16,6.31-3.27a16.43,16.43,0,0,0,2.27-1.39c1.84-1.4,3.52-3,5.48-4.25,3.35-2.07,7-3.66,10.26-5.85,6.55-4.39,12.92-9,19.36-13.59,3.5-2.47,7-4.9,10.48-7.46,1.65-1.23,3.09-2.74,4.61-4.13.43-.39.83-.81,1.22-1.24q2.46-2.72,4.91-5.45c2.89-3.23,5.86-6.4,8.65-9.72,2.06-2.45,3.72-5.23,5.83-7.63,2.39-2.71,2.51-2.59-.39-4.63-1.59-1.12-3-2.71-4.74-3.35-3.94-1.44-8-2.53-12.11-3.57-7.41-1.89-14.85-3.63-22.27-5.47-7.88-2-15.73-4-23.61-5.92-5.26-1.27-10.57-2.34-15.85-3.53q-6.6-1.49-13.19-3.07c-2.45-.59-4.91-1.18-7.31-1.92-.54-.16-1.34-1.12-1.23-1.45,1.28-3.77,2.66-7.51,4.16-11.2.28-.69,1.43-1.68,1.84-1.55,3.47,1.18,7,.84,10.44.32,3.28-.49,6.56-1,9.78-1.78,2.24-.53,2.61-2,1.36-4a13.47,13.47,0,0,1-1.46-2.9c-1.08-3.21-2.17-6.42-3.06-9.68-1.13-4.15-2.14-8.33-3.05-12.53-.26-1.2-.31-2.54,1.23-3.31a22.33,22.33,0,0,0,10.08-10.89c4-8.45,5.52-17.54,6.2-26.79a10.82,10.82,0,0,1,.73-3.85c.23-.47,1.68-.31,2.54-.53,6.67-1.69,13.07-4,17.83-9.24,1.28-1.41,3.3-2.93,2.45-5.19-.54-1.43-2-2.52-3-3.76-6-7.3-9.29-15.83-10.93-25-.51-2.89.56-3.66,3.51-3.24a80.2,80.2,0,0,0,11.72,1.25,81.16,81.16,0,0,0,13.25-1.29,60.34,60.34,0,0,0,11.85-3.08A41,41,0,0,0,350.12,112c.77-1,1.44-1.92,2.08-2.84A39.39,39.39,0,0,0,358.79,93c.47-2.73-.7-4.5-3.1-4.85a40.33,40.33,0,0,1-5.4-1.24,115.67,115.67,0,0,1-26.14-11.46c-7.89-4.62-15.81-9.19-23.49-14.14-8.8-5.67-17.42-11.63-26-17.64C268.35,39.26,262.31,34.43,256,30c-6.51-4.62-12.74-9.59-19.82-13.45a131.58,131.58,0,0,0-21.32-9.37A111,111,0,0,0,191.63,1.9C185,1.18,178.4.47,171.77.2l-1.25,0c-3.68,0-7.39.6-11.09.8M79.94,102.78c-2.7-.76-5.47-1.25-8.21-1.87-3-.7-4.05-2.06-3-5C71.15,89,73.55,82.11,76.5,75.45a178.21,178.21,0,0,1,9.33-17.82A90.93,90.93,0,0,1,94.13,46a141.5,141.5,0,0,1,12.26-13.53c6.31-5.9,13.27-10.94,21.56-14,7-2.57,14-4.92,21.37-6.06,5-.77,9.89-1.7,14.87-2.13a101.36,101.36,0,0,1,15.15-.42,107.08,107.08,0,0,1,25.83,4.74,130.3,130.3,0,0,1,25.12,10.75c7.37,4.21,14.6,8.73,21.51,13.63,8.82,6.26,17.19,13.13,25.89,19.57,4.93,3.65,10.12,6.94,15.17,10.42a233.46,233.46,0,0,0,26.46,15.48c1.8.92,3.73,1.58,5.55,2.47,1.44.7,1.54,2.05.12,2.83-3.74,2.05-7.57,3.94-11.35,5.92a15.53,15.53,0,0,0-2.77,1.74c-.39.33-.45,1.06-.66,1.61.61.22,1.29.72,1.82.6q4.39-1,8.71-2.23c3.84-1.11,7.65-2.33,11.48-3.48a14.87,14.87,0,0,1,1.51-.3c-.16.64-.12,1.47-.52,1.9-1,1.09-2.23,2-3.34,3a17,17,0,0,0-1.85,1.87,13.39,13.39,0,0,0-1.06,1.82c.79.11,1.58.26,2.37.33.24,0,.49-.18.74-.28,4.07-1.46,7.68-3,11.34-4.35,1-.39,2.42-1.62,3.16-.2.3.59-1,2-1.66,3.09-.11.18-.36.29-.45.47-.42.84-.8,1.7-1.19,2.55a14.94,14.94,0,0,0,2.8-.29c1-.28,1.81-.91,2.76-1.25a2.84,2.84,0,0,1,1.1-.08l.51,0c-.06.64.11,1.48-.23,1.87a63.06,63.06,0,0,1-6.48,6.87c-4.78,4-10.51,6.2-16.56,7.58a72.89,72.89,0,0,1-16,1.72,103.7,103.7,0,0,1-33.24-5.5c-3.59-1.19-7.16-2.47-10.71-3.76-1.52-.55-1.58-1.51-.29-2.36,3.09-2,6.25-3.95,9.35-6,2-1.32,4-2.68,5.93-4.16.47-.36.52-1.26.76-1.92-.7-.06-1.49-.37-2.08-.15-5.74,2.18-11.42,4.54-17.18,6.65-4.45,1.62-9,3-13.53,4.34a3.87,3.87,0,0,1-2.82-1c-1.15-.9-2.18-1.29-3.17-.08-1.73,2.12-4.08,1.8-6.41,2.07-2.86.33-4.08-1.48-5.47-3.26-1.87-2.41-2.75-2.39-4,.44-.92,2.08-2.14,3-4.52,2.8-4.31-.33-8.65-.24-13-.52-4.79-.31-9.6-.64-14.35-1.33-7.88-1.14-15.72-2.58-23.57-3.9a35.84,35.84,0,0,0-5.34-.83c-2.85,0-4.47-1.66-5.82-3.82-.24-.39-.3-.9-.51-1.32-1.73-3.42-3-3.77-5.45-.93-3.22,3.76-5.68,2.08-9.09-.93-2.69-2.38-5.2-5-7.9-7.35A2.71,2.71,0,0,0,134.5,87c-.55.27-.91,1.43-.93,2.21-.1,3.58,0,3.41-3.45,2.1a151.68,151.68,0,0,1-22.15-11c-4.71-2.72-9-6.19-13.43-9.39-1.71-1.24-3.27-2.69-4.93-4-.31-.25-1-.49-1.15-.36A1.57,1.57,0,0,0,88,67.81a8.2,8.2,0,0,0,1.38,2.7q6.12,6.92,12.39,13.72a27.45,27.45,0,0,0,3.06,2.64,5.86,5.86,0,0,1,1.94,6c-.61,3.59-1.43,7.14-2.16,10.71a2.51,2.51,0,0,1-2.67,2.2q-1.33.07-2.64.07a71.15,71.15,0,0,1-19.36-3m5,54.74c7.59-4.29,11.81-11.25,14.83-19.14.75-1.95,1.73-3.8,2.61-5.7,3.36-11.32,6.72-22.19,10.08-33.07.58-1.88,1.1-3.78,1.78-5.62.37-1,.84-1.76,2.36-1.07,3.93,1.79,8,3.29,12,4.94.39.16.65.62,1,.93-.36.12-.74.38-1.08.34-2.22-.26-4.42-.7-6.64-.84a3.37,3.37,0,0,0-2.48.94c-.31.36.09,1.73.58,2.28a66.31,66.31,0,0,0,5.72,5.74c1.6,1.39,1.51,3,1,4.64-.7,2.26-1.62,4.45-2.25,6.73a2.63,2.63,0,0,0,.53,2.28,2.75,2.75,0,0,0,2.43.31c4-2,8-3.92,11.89-6.18,3.24-1.9,3.6-2,5.76,1.13.71,1,1.44,2,2.17,3,1.6,2.24,3.2,2.29,5.75.19s2.67-2,4.22.86c1,1.84,2,3.7,2.8,5.63.73,1.73,2,1.54,3.3,1.14,4.1-1.24,4.1-1.27,6.18,2.41.87,1.54,1.76,3.07,2.63,4.61,1,1.82,2,2.08,3.32.54,1.77-2.14,3.34-4.45,5-6.68s3.53-4.66,5.23-7a2,2,0,0,0-1.52-3.28c-1.91-.2-3.82-.36-5.73-.44a3.45,3.45,0,0,1-3.68-3.18c-.16-1.18.34-1.87,1.58-1.64,3.65.69,7.27,1.58,10.93,2.13,2.53.38,5.13.32,7.7.49,4.41.28,8.82.54,13.22.9a2,2,0,0,1,2.11,2.28,38.1,38.1,0,0,0,.41,5.29c.1,1-.19,1.31-1.17,1.18a32.55,32.55,0,0,0-4-.43c-2.32,0-3.24,1.56-2.07,3.5q2.92,4.82,5.9,9.61c1,1.68,2.47,1.86,4,.58,1.42-1.15,2.87-2.25,4.28-3.42,1.72-1.43,3.47-1.29,5.38-.35,1.69.83,3.47,1.5,5.23,2.18,1.6.62,3-.6,3.4-3a13.39,13.39,0,0,0,0-2c0-2,.82-2.48,2.71-1.62a6,6,0,0,1,.9.47c3.77,2.57,3.81,2.62,7-.64,1.33-1.38,2.31-2.11,4-.33a37.22,37.22,0,0,0,5.45,4.22c1.91,1.35,3.1.83,3.65-1.36a25.06,25.06,0,0,1,1.21-3.1c.17,1.11.37,2.22.52,3.33.45,3.47.61,7,1.38,10.4a114.55,114.55,0,0,0,3.94,13.7,25.36,25.36,0,0,0,10.3,13.33,26.52,26.52,0,0,0,4.52,1.76c1.39.54,2.34,1.25,2.24,3.08-.51,9.52-2.45,18.67-6.89,27.17-1.79,3.44-4,6.59-8,7.87-3.4,1.09-5.28.32-7-2.74a10,10,0,0,0-1.46-1.64c-.42.75-1.17,1.48-1.19,2.24-.26,7.4-2.17,14.43-4.6,21.34-3.54,10.07-7,20.18-10.91,30.1-2.08,5.26-5.25,10.09-7.61,15.25a58.85,58.85,0,0,1-12.75,17.5c-5.23,5.12-10.8,9.87-17.29,13.27-6,3.13-12.29,5.7-19.23,5.91-5.63.18-11.31.78-16.9.32a67.3,67.3,0,0,1-18.68-4,59.83,59.83,0,0,1-31-25c-4.49-7.1-9.08-14.16-13.13-21.52a127.06,127.06,0,0,1-12.21-32.38c-1.27-5.41-1.62-11.05-2.25-16.6-.31-2.7-.32-5.43-.47-8.14-.07-1.29-.68-1.66-1.8-1-.77.44-1.48,1-2.25,1.46-4.06,2.41-7.49,1.44-10.64-1.3a19.76,19.76,0,0,1-5.44-8.71A55,55,0,0,1,64.25,173c.11-2.41-.36-4.84-.37-7.27a62.09,62.09,0,0,1,.45-6.61,1.31,1.31,0,0,1,1-.76c3,.29,6,.78,9,1,.77.06,1.54.09,2.3.09A16.62,16.62,0,0,0,85,157.52m53.47-57.15c-.11-1.68-.38-3.35-.52-5a6.47,6.47,0,0,1,.19-1.44,4.85,4.85,0,0,1,1.48.63c1.23,1.12,2.37,2.33,3.55,3.51,1.44,1.44,2.85,2.9,4.31,4.3,1.7,1.63,3.16,1.43,5.57-.54,1-.82,2.15-1.48,3.24-2.21l1.93,3c.78,1.21,1.52,2.44,2.32,3.63,2.22,3.3,3,3.68,6.57,2.46,1.81-.61,2.4-.09,2.82,1.55.63,2.49,1.45,4.94,2.16,7.42.53,1.86,1.38,3.23,3.64,3a18,18,0,0,1,2.84,0c1.9.11,2.4,1,1.31,2.46-1.22,1.64-2.56,3.18-3.85,4.76-1.24,2-2.23,2-3.09,0a24.32,24.32,0,0,0-1.82-3.18c-2-3.06-2.53-3.47-5.71-2-1.54.71-2.64.89-3.5-1-1.06-2.34-2.45-4.53-3.66-6.8-1-2-2.46-2.32-4.18-1-4.15,3.17-4.15,3.17-7-1.21-.26-.41-.59-.77-.87-1.17-1.35-2-2.23-3-5.09-1.39-3.2,1.77-6.41,3.53-9.65,5.24a6.87,6.87,0,0,1-1.75.4,5.75,5.75,0,0,1-.12-1.89c.31-1.1,1-2.09,1.24-3.19.54-2.39-.57-4.08-2.45-5.52a11.09,11.09,0,0,1-1.9-2.68l3,.21c2.44.15,4.89.36,7.33.42h.1c1.89,0,1.57-1.52,1.5-2.71M74.81,117.13c-2.23-.45-4.48-.78-6.67-1.35-1.74-.45-2.53-1.56-1.88-3.51a11.17,11.17,0,0,0,.62-3.89c-.08-2,1.15-1.94,2.38-1.75,3.41.53,6.8,1.21,10.21,1.77,3.63.6,7.27,1.14,10.9,1.71,3,.15,5.57.33,8.14.42a4.66,4.66,0,0,0,1.09-.14,4.32,4.32,0,0,1,1.17-.13,3.15,3.15,0,0,1,1.76.73,1.42,1.42,0,0,1-.15,1.36,15.83,15.83,0,0,1-4.08,2.09c-3.51.92-7.1,1.56-10.65,2.33a35.83,35.83,0,0,1-7.57.88,26.49,26.49,0,0,1-5.28-.52m150.31,2c.87-2.7,1.69-5.43,2.65-8.1.46-1.28,1.52-1.3,2.36-.41,1,1.12,1.88,2.42,2.82,3.64.56.72,1.14,1.42,1.7,2.14.82,1.06,1.55,1,2.44,0,1.26-1.39,2.61-2.72,4-4,1.63-1.51,2.67-1.25,3.31.82,1.65,5.25,2,6.73,7.18,1.83,1.34-1.27,2.73-2.49,4.14-3.68a3.16,3.16,0,0,1,1.16-.34,8.24,8.24,0,0,1-.16,1c-.29,1-.61,2.08-.92,3.12-1,3.15-.41,4.44,2.32,5.38a1.17,1.17,0,0,0,.38,0,.79.79,0,0,1,.44.08c.59.41,1.12.91,1.67,1.37a7.39,7.39,0,0,1-1.6,1.22c-2.5,1-5.25,1.47-6.08,4.77-.35,1.38-1.6.94-2.51.19-1.74-1.44-3.4-3-5.25-4.27a2.66,2.66,0,0,0-2.46,0c-1.06.78-1.69,2.14-2.75,2.93a3.14,3.14,0,0,1-2.59.42c-1.88-.73-3.61-1.84-5.44-2.73s-3.07-.24-3.32,1.72c-.15,1.18-.34,2.36-.43,3.54-.13,1.72-1.09,2.1-2.54,1.6a13,13,0,0,1-2.57-1.19c-3.17-2-5.51-.37-7.78,1.71a10.24,10.24,0,0,1-2,1.53c-1,.51-1.92.65-2.53-.66-.48-1-1.13-2-1.68-3a11.79,11.79,0,0,1-.5-1.21l1.32-.51a.49.49,0,0,1,.22,0c1.39.16,3.28,1.41,4-.36s.41-3.77.32-5.67c-.07-1.65-.51-3.29-.7-4.94,0-.35.21-1,.46-1.06a1.61,1.61,0,0,1,1.18.36c1.8,1.31,3.61,2.63,5.34,4a4,4,0,0,0,2.26,1.09c.92,0,1.59-.8,2.12-2.44m60.56,11.63a65.79,65.79,0,0,1-18.58-5.25c-1.38-.59-1.71-1.18-.47-2.35,1.43-1.35,1.16-1.87-.61-3.06-.89-.59-2.86-.71-1.91-2.71,3.51.8,6.8,1.84,10.09,2.84,3.88,1.18,7.77,2.33,11.65,3.52,2,.61,3.4,1.53,3.29,4s-.06,3.15-1.46,3.15c-.48,0-1.12-.08-2-.18M82.43,122c3.23-.49,6.49-.85,9.71-1.4,1.95-.33,3.84-1,5.77-1.36a7.12,7.12,0,0,1,1.58-.08h.73c-.27.69-.35,1.68-.86,2a59.17,59.17,0,0,1-7.7,4.63c-3.66,1.7-7.56,2.89-11.27,4.48-4.79,2.06-9.82,1.81-14.82,1.69-2.71-.06-4.51-1.8-3.89-3.5s1.44-3.34,2.17-5c1.09-3.55,3.56-1.75,5-1.39a23.76,23.76,0,0,0,5.75.66,52,52,0,0,0,7.8-.74M58,147.93a18.09,18.09,0,0,0-1.65-.78c-.68-.53-1.2-.77-1.58-1.16-3.36-3.38-2.89-2.23-.31-5.42,1.94-2.39,4.13-2.77,6.93-2.93a108,108,0,0,0,16.12-1.78c6.43-1.35,12.77-3.32,18.16-7.41.32-.24.88-.17,1.32-.25a3.27,3.27,0,0,1-.12,1.18c-3.12,5.83-5.67,12.07-10.84,16.53-3.53,3-7.24,5.55-12.24,5.93q-1,.08-2,.08a26.32,26.32,0,0,1-13.76-4m232.26-2.72c-6.41-.24-12.13-2.59-17.56-5.71a79,79,0,0,1-6.58-4.75c-2.22-1.61-1.53-4-1.56-6.12a1.58,1.58,0,0,1,1.19-.33c1.09.57,2.09,1.31,3.12,2a57.31,57.31,0,0,0,19.94,7.86c1.71.34,2.5,1.17,2.42,2.88a6,6,0,0,1,.85,1.92c.18,1.3,0,2.28-1.65,2.28h-.19m-22.67,8.25c-.78-2.23-1.47-4.5-2.2-6.75-.29-2.51-.6-4.57-.86-6.64a7,7,0,0,1,.09-1.35,4.13,4.13,0,0,1,1.5.34c1.36,1,2.65,2.07,4,3.13a41,41,0,0,0,14.77,7.65,24.48,24.48,0,0,0,7.21.53,4.37,4.37,0,0,1,4.3,2.29,45.86,45.86,0,0,0,3.91,6c1.24,1.46.35,2.22-.58,2.74a34.31,34.31,0,0,1-7.12,3.38,28.44,28.44,0,0,1-7.7.92h-.23a18.07,18.07,0,0,1-17.06-12.27M81.25,232c-2.56-.85-5.08-1.82-7.61-2.75-1.83-.67-1.71-1.9-.93-3.3s1.55-2.72,2.32-4.08c1.1-3.21,1.89-6.24,2.91-9.18A3.13,3.13,0,0,1,79.86,211c.37-.1,1.22.9,1.58,1.55a4.47,4.47,0,0,1,.37,2,59.74,59.74,0,0,0,2.1,14.89,3.41,3.41,0,0,1-.39,2.57c-.1.14-.37.19-.7.19a5.59,5.59,0,0,1-1.56-.26m175,10.9c-2.44-.26-3.23-1.37-2.58-3.72,1.72-6.29,3.5-12.56,5.23-18.84a21.7,21.7,0,0,1,.49-2.64,9.29,9.29,0,0,1,1.51-2c.51.66,1.33,1.25,1.46,2,.7,3.82,1,7.72,1.86,11.51a77.69,77.69,0,0,0,3.1,10.75c.68,1.82-.17,2.46-1.38,2.88a18.16,18.16,0,0,1-3.74.49c-2.28-.15-4.12-.25-5.95-.45M128.46,348.46a55,55,0,0,1-8.05-19.86,144.68,144.68,0,0,1-2.52-16.21c-.25-3.56.6-7.24,1.26-10.82.24-1.32,1.69-1.12,2.64-.5,4.08,2.69,7.95,5.74,12.2,8.11,5.18,2.88,10.67,5.21,16,7.77.73.35,1.49.63,2.22,1,1.48.7,1.34,1.7.5,2.83-4.07,5.47-8.1,11-12.21,16.39-2.79,3.68-5.69,7.28-8.53,10.92-.8,1.26-1.37,1.87-1.92,1.87s-1-.5-1.62-1.48m79.44.11c-2-2.64-4-5.31-5.88-8.06-3.87-5.68-7.65-11.42-11.46-17.13a8.68,8.68,0,0,1-.91-1.37c-.36-.87-.61-1.79-.9-2.69a20.29,20.29,0,0,0,2.37-.61c4.46-1.73,9-3.36,13.35-5.28a68.9,68.9,0,0,0,19-12.15,5.1,5.1,0,0,1,.87-.53,3.46,3.46,0,0,1,.28,1.14c-.25,2.07-.53,4.14-.86,6.2-.4,2.45-.87,4.89-1.31,7.34a102.79,102.79,0,0,1-2.37,11.06c-1.86,5.92-4,11.76-6.17,17.57a21.44,21.44,0,0,1-2.93,5.12,1.59,1.59,0,0,1-1.24.79c-.72,0-1.36-.73-1.87-1.4"/><path class="cls-5" d="M167.91,368.58l-.26,0,.26,0"/><path class="cls-5" d="M174.61,12.38c-6.38.34-12.86,0-19.11,1a156.52,156.52,0,0,0-21.3,5.64,54.2,54.2,0,0,0-12.93,5.72A108.74,108.74,0,0,0,105.2,37.21c-5.12,4.89-9.49,10.57-14,16.06a67.43,67.43,0,0,0-4.68,7.25,2.42,2.42,0,0,0-.15.89A4.48,4.48,0,0,0,87,60.9q2-2.44,4-4.9c3.77-4.64,7.37-9.45,11.37-13.88a63.4,63.4,0,0,1,9.23-8.36,109.59,109.59,0,0,1,14.12-9.26,98.17,98.17,0,0,1,18.72-7.17,103.33,103.33,0,0,1,24.38-4,130.81,130.81,0,0,1,16.72.82A77.53,77.53,0,0,1,202.8,18a83.93,83.93,0,0,1,24.53,13.19c7.09,5.34,14.32,10.51,21.55,15.66q14,10,28.16,19.84c4.8,3.33,9.74,6.45,14.62,9.66,1.64,1.08,1.9,2.23.83,3.84a26.08,26.08,0,0,1-11.08,9.14,221.86,221.86,0,0,1-20.85,7.84c-6.18,2.11-12.47,4-19.09,4.17-2.57.08-5.14.26-7.71.44a7,7,0,0,0-2,.46c-.15.06-.2.91-.13.93a5.4,5.4,0,0,0,1.62.33c6,.09,11.84-1.14,17.73-2.1a83.55,83.55,0,0,0,16.62-4.89c3.84-1.49,7.68-3,11.55-4.37a34.15,34.15,0,0,0,13.7-9.24c3.12-3.37,2.68-5.81-1.36-8.34-2.68-1.69-5.28-3.49-7.9-5.26-5.43-3.66-10.88-7.27-16.25-11S256.86,50.78,251.41,47a6.69,6.69,0,0,1-1-.77c-8-5.89-16.08-11.68-24-17.67a71.46,71.46,0,0,0-19.84-10.83c-9.29-3.19-18.75-5.45-28.6-5.45q-1.68,0-3.37.09"/><path class="cls-5" d="M127,44.64a3.42,3.42,0,0,0-.67,1.92,3.43,3.43,0,0,0,.73,1.64,42.52,42.52,0,0,0,10.79,11.22c4.2,3,8.5,5.9,12.87,9,2.27,1.24,4.39,2.47,6.59,3.5,4,1.85,7.9,3.87,12,5.32,7.52,2.65,15.06,5.27,23.06,6.22,3.79.45,7.55,1.17,11.33,1.7a4.84,4.84,0,0,0,1.66-.4c-.43-.59-.74-1.45-1.31-1.71a45.37,45.37,0,0,0-5.17-1.8C188.28,78,177.63,74.8,167,71.53a59.37,59.37,0,0,1-16-7.79c-3.89-2.65-7.76-5.36-11.37-8.36-3-2.46-5.48-5.42-8.24-8.12a24.59,24.59,0,0,0-2.93-2.46,2.05,2.05,0,0,0-1-.27.52.52,0,0,0-.39.1"/><path class="cls-5" d="M110.34,57.35a1.78,1.78,0,0,0-.38,1.3,4,4,0,0,0,1,1.52c2.49,2.39,4.92,4.84,7.54,7.08a108,108,0,0,0,20.23,13.49,75.3,75.3,0,0,0,20.55,7.44c3.67.72,7.38,1.23,11.09,1.74.53.07,1.13-.4,1.69-.61-.4-.4-.73-1-1.22-1.18-1.65-.61-3.35-1.06-5-1.58-4.85-1.49-9.7-3-14.78-4.48-3.41-1.44-6.64-2.82-9.8-4.34-8.14-3.94-15.07-9.67-22.2-15.12-2.45-1.87-5.13-3.44-7.72-5.11a1.7,1.7,0,0,0-.78-.2c-.11,0-.19,0-.22.06"/><path class="cls-5" d="M121.32,84.85a6,6,0,0,0,.62.3c2.91,1,5.82,2,8.85,2.94.11-.33.16-.72.1-.74q-4.59-1.36-9.21-2.65h0c-.1,0-.22.1-.33.15"/><path class="cls-5" d="M144.52,91a5.88,5.88,0,0,0,.84.89A20,20,0,0,0,148,93.46c1.54.15,2.86.34,4.19.4.34,0,.7-.39,1-.6a4,4,0,0,0-1-.66c-2.15-.62-4.31-1.21-6.49-1.75l-.22,0a7.49,7.49,0,0,0-1,.19"/><path class="cls-5" d="M161.14,95.47c.41.4.76,1,1.25,1.17a44.47,44.47,0,0,0,5.46,1.62c5.86,1.23,11.8,2.1,17.59,3.6,6.15,1.6,12.42,2,18.66,2.46,5.81.45,11.68.11,17.52.08a7.55,7.55,0,0,0,2.22-.44,4.94,4.94,0,0,0,1.15-.77,4.27,4.27,0,0,0-1.32-.5c-2.72,0-5.45,0-8.18,0a137.78,137.78,0,0,1-20.6-.89c-3.77-.58-7.35-1.07-10.88-1.78-4.56-.92-9.09-2-13.63-3-2.47-.56-4.91-1.21-7.39-1.72a1.57,1.57,0,0,0-.32,0,12.23,12.23,0,0,0-1.52.25"/><path class="cls-5" d="M101.68,102.32a1.59,1.59,0,0,0,.06.73s.28.08.4,0c.67-.22,1-2.88.39-3.39a25.23,25.23,0,0,0-.85,2.62"/><path class="cls-5" d="M184.83,126.82c.64,3.81,1.49,7.59,2,11.42a85.52,85.52,0,0,1,1,12.27,108,108,0,0,1-1.31,14.77,95.45,95.45,0,0,1-3,12.52,72.56,72.56,0,0,1-3,6.86,4,4,0,0,0,0,1.56c.35-.26.85-.44,1-.79a40.08,40.08,0,0,0,2.62-5.26c1.22-3.37,2.2-6.82,3.39-10.35.33-2.14.59-4.16.76-6.19.19-2.42.33-4.84.44-7.26a106.82,106.82,0,0,0,.37-11.2c-.27-4.59-1-9.16-1.71-13.72a35,35,0,0,0-1.31-4.92c-.08-.27-.52-.43-.79-.64-.17.31-.52.66-.47.94"/><path class="cls-5" d="M80.7,137.79a9,9,0,0,0-2.28,1.85c-2.69,3.62-6.48,5.86-10.1,8.33a5,5,0,0,0-1,1.3h.47a2.06,2.06,0,0,0,1-.1c4.94-2.37,8.83-6,12.47-10.25a13.92,13.92,0,0,0,.62-1.35,3.08,3.08,0,0,0-1.2.21"/><path class="cls-5" d="M68.71,163.14A103.56,103.56,0,0,0,67,175.09c-.16,3.5.49,7,.79,10.56a2.57,2.57,0,0,0,.26.66,2.61,2.61,0,0,0,.3-.75c.12-2,.21-4,.31-6.22A66.1,66.1,0,0,1,70,163.28a4.17,4.17,0,0,0-.25-1.46c-.35.44-.93.84-1,1.32"/><path class="cls-5" d="M77.91,164.64c-.1.35.13.79.24,1.19.86,3,.12,5.66-2,7.11-2.58,1.79-3,3.95-2.4,7,.91,4.58,3.89,7.71,6.72,11.23a12,12,0,0,0,1.27,2.31,1,1,0,0,0,.89-.06c.86-1.88-1.13-7.53-3.08-8.82-2.11-1.41-2.38-3.57-2.11-5.78a3.87,3.87,0,0,1,3.15-3.48,2.46,2.46,0,0,0,1.56-1.6c.37-3.47-.84-6.66-2.16-9.79-.16-.39-.85-.55-1.29-.82a7.13,7.13,0,0,0-.83,1.5"/><path class="cls-5" d="M268.32,172.81a3.72,3.72,0,0,0-1.1,1.71c-.54,2-.75,4.07-1.47,6a2.56,2.56,0,0,0,.68,3.18c3.32,3.31,2.61,7.77-1.54,10-2,1.07-3.69,4.3-3.37,6.43,0,.2.55.32,1,.37,2.55-2.11,4.95-4.17,7.44-6.1a8.47,8.47,0,0,0,1.93-11.53c-1.07-1.71-2.56-3.36-2.05-5.72a24.13,24.13,0,0,0,.43-3.54c0-.41-.22-1.2-.37-1.2h-.13a2.24,2.24,0,0,0-1.41.41"/><path class="cls-5" d="M173.44,197a75.08,75.08,0,0,0-3.48,8c-1.23,3.74-2.1,7.6-3.12,11.63,1,1.44,1.09.42,1.31-.29,1.17-3.75,2.26-7.52,3.53-11.24.88-2.55,2-5,3-7.51.16-.43-.09-1-.15-1.52-.38.32-.92.56-1.11,1"/><path class="cls-5" d="M71.94,197.72c.63.84,1.32,1.64,2.1,2.56.87.73,1.62,1.37,2.41,1.94a2.6,2.6,0,0,0,.89.24c-.09-.3-.08-.7-.28-.88-1.51-1.42-3-2.79-4.59-4.17a5.41,5.41,0,0,0-.61-.42c0,.25,0,.56.08.73"/><path class="cls-5" d="M75.28,226.27c-.1.18.18.56.29.85a6.86,6.86,0,0,0,1-1.31c0-.56-.09-.89-.13-1.23a14.81,14.81,0,0,0-1.15,1.69"/><path class="cls-5" d="M178.18,278.52a43,43,0,0,0,16.67,11,4.6,4.6,0,0,0,1.78-.13,6.13,6.13,0,0,0-1.25-1.31c-3.73-2.09-7.49-4.11-11.35-6.27-1.65-1.5-3.16-2.94-4.75-4.26a4.66,4.66,0,0,0-1.65-.51,4.21,4.21,0,0,0,.55,1.5"/></g></g></svg>